<svg xmlns="http://www.w3.org/2000/svg" viewBox="0 0 228.4725 44.7522">
  <title>arrow</title>
  <g>
    <path d="M1.244,25.85c4.0488,1.829,7.8345,3.4939,11.3911,5.0044" fill="none" stroke="#fbf4ea" stroke-linecap="round" stroke-miterlimit="10" stroke-width="2.488"/>
    <path d="M33.5243,38.8047c19.3335,6.1971,30.9912,5.6479,47.6626,1.9445,24.938-5.54,47.0542-15.04,70.9873-22.064,13.8325-4.06,29.0249-7.1815,44.0879-7.8618" fill="none" stroke="#fbf4ea" stroke-linecap="round" stroke-miterlimit="10" stroke-width="2.488" stroke-dasharray="22.3538 22.3538"/>
    <path d="M207.43,10.791a106.7807,106.7807,0,0,1,12.3741,1.22" fill="none" stroke="#fbf4ea" stroke-linecap="round" stroke-miterlimit="10" stroke-width="2.488"/>
    <path d="M218.8094,11.8652C216.7782,8.8008,216.5848,3.5159,217.1932,0a33.9109,33.9109,0,0,0,11.2793,13.8236c-5.9375,1.0848-11.1572,4.5463-15.7715,8.3412C213.76,18.4822,215.5951,14.1241,218.8094,11.8652Z" fill="#fbf4ea"/>
  </g>
</svg>
