<svg xmlns="http://www.w3.org/2000/svg" xmlns:xlink="http://www.w3.org/1999/xlink" viewBox="0 0 690.0229 846.4292">
  <defs>
    <clipPath id="clip-path">
      <rect x="411.8121" y="608.9221" width="11.8654" height="19.6707" transform="translate(-44.7879 32.7242) rotate(-4.258)" fill="none"/>
    </clipPath>
    <clipPath id="clip-path-2">
      <rect x="412.2616" y="609.1719" width="10.9671" height="19.1709" transform="translate(-72.1292 55.3794) rotate(-6.9833)" fill="none"/>
    </clipPath>
    <clipPath id="clip-path-3">
      <rect x="382.0815" y="326.4664" width="114.7701" height="114.1933" transform="translate(-27.2655 33.6878) rotate(-4.258)" fill="none"/>
    </clipPath>
  </defs>
  <title>boat_1</title>
  <g id="Layer_2" data-name="Layer 2">
    <g id="boat">
      <g>
        <g id="guy">
          <path d="M473.6029,680.8072q-2.0977.2394-4.1965.4815-18.8544,2.17-37.7064,4.3378-4.2793.495-8.5566.9844l-.0026,0-1.7729.2033c-.042-.2636-.0856-.53-.1316-.7931-.3353-.7066-.8314-1.3934-1.1377-2.1021q26.357-3.0321,52.7127-6.064.3936,1.4544.7916,2.952" fill="#cd3b2c"/>
          <path d="M420.3957,616.5369a.0277.0277,0,0,1-.0076-.0139.0518.0518,0,0,0,0,.025l.0017.0224.0127-.0234c0-.0185.0012-.0384.0012-.0556-.0029.0148-.0044.0294-.0085.0455" fill="#e2e8f0"/>
          <path d="M536.81,470.7961a1.7144,1.7144,0,0,1-.2036,1.3449,55.0279,55.0279,0,0,0-3.8822,5.8909,9.9357,9.9357,0,0,0-1.33,5.1092c1.04,12.0334,2.5592,24.0152,3.3851,36.0658.3911,5.6784-.3257,11.4643-.705,17.2066-.2322,3.55-2.275,6.7087-5.4321,9.4449a85.0824,85.0824,0,0,1-8.3017,6.6253c-8.4307,5.6366-16.9757,11.1746-25.4984,16.7283q-2.3976,1.5591-4.7882,3.123a25.7866,25.7866,0,0,0-1.3323-3.1375q-.2482-.4886-.53-.9628c-.0378-.0632-.0741-.1265-.1132-.19s-.0766-.125-.1142-.1869c-.1337-.2159-.2737-.43-.4188-.64-.2312-.3393-.4793-.6734-.7437-.9971a14.99,14.99,0,0,0-2.7332-2.62l.0864-.01c-.3861-.2724-.7871-.533-1.21-.7855-.1023-.0967-.2039-.1842-.305-.2652,9.6107-7.1519,19.3944-14.1807,28.7674-21.509,5.3773-4.2036,10.488-8.8138,10.8824-14.92a96.8969,96.8969,0,0,0,.0465-14.754c-.8528-9.5911-2.1969-19.1311-3.2647-28.7022a4.0993,4.0993,0,0,0-2.9442-3.893A9.9536,9.9536,0,0,1,513.41,476.9a.714.714,0,0,1,.3687-1.2569l4.728-.5792a.7926.7926,0,0,0,.6064-.4228c.8951-1.7411,1.7375-3.41,2.6193-5.0639.7889-1.4823,1.3488-3.08,3.0245-4.2859a1.124,1.124,0,0,1,1.7292.5923c.0771.2557.1474.49.2123.7052a.3227.3227,0,0,0,.4644.19c.8836-.4764,1.72-.9283,2.7982-1.509a.7026.7026,0,0,1,1.0356.661c-.0441.72-.0776,1.263-.1088,1.7671a.3392.3392,0,0,0,.4247.3474c.8016-.2128,1.61-.4275,2.6484-.7a.8728.8728,0,0,1,1.0643,1.08c-.2.7135-.3694,1.3177-.5345,1.9031a.2948.2948,0,0,0,.3922.3538c.6731-.2707,1.5984-.8612,1.9272.114" fill="#fdb78b"/>
          <path d="M490.0538,572.3349q-1.1625-1.5139-2.33-3.0236l.9978-.1139a25.9838,25.9838,0,0,1,1.3323,3.1375" fill="#feb78c"/>
          <path d="M451.1262,570.209a2.4071,2.4071,0,0,0-.7749.4116c-.0375.0292-.0723.0582-.1032.0869q-.4394.3774-.8293.7088-.0447.039-.0932.0783c-.03.0273-.06.0519-.0907.0767-.118.1-.2335.1983-.3455.2912-.0572.0465-.112.0915-.1679.1392-.0535.0437-.1083.0887-.1618.1323-.2139.1783-.4158.34-.6082.4863-.1446.1151-.286.2207-.4214.318-.0436.0349-.0888.066-.1327.097-.1781.1268-.348.24-.5148.3407-.0743.0478-.1516.0919-.2249.1356-.0507.0289-.1016.0551-.1511.0826-.0355.0185-.07.0369-.1042.054-.051.0249-.1019.05-.15.0732-.028.014-.0563.024-.0818.0365-.0409.0175-.0844.0366-.1242.0515-.0436.0177-.0859.0354-.1283.0505-.0334.013-.0657.022-.0992.0338-.0245.0084-.049.0155-.0723.0225-.03.01-.058.0189-.0877.0277-.0428.0111-.0854.0235-.1284.032a.5339.5339,0,0,1-.0765.0189l-.0818.018c-.0339.0064-.0678.0116-.1005.0167-.043.0072-.0875.0131-.1306.019l-.1245.0132c-.042.0031-.0827.0062-.1249.0067-.1039.0064-.2069.0061-.3114.0033-.0384-.0011-.0769-.0035-.1167-.0058-.0477-.0031-.0943-.0075-.1436-.0131-.105-.0093-.2143-.0237-.3253-.0418a.3.3,0,0,0-.0347-.0053c-.07-.0134-.1407-.0279-.2145-.0422-.05-.0108-.0993-.0216-.1518-.0349-.0443-.01-.0886-.02-.1345-.0336a12.25,12.25,0,0,1-1.281-.4077c-.0638-.0243-.1263-.0474-.1929-.0728-.1914-.07-.3914-.1491-.6025-.2351-.1211-.0478-.2463-.0979-.3715-.148-.02-.0077-.0435-.0166-.064-.0256-.1117-.0458-.2261-.0928-.3419-.1409-.3529-.1454-.7292-.3036-1.13-.4719l-.0371-.4449c-.0909-1.15-.1555-2.3007-.2477-3.4506a33.8442,33.8442,0,0,0-.443-3.5207,2.7777,2.7777,0,0,0-.986-1.3594c.3646.0733.7337.1356,1.1048.1885l0,.004a22.2929,22.2929,0,0,0,10.6534-1.0573c.2046-.0721.4077-.1479.6117-.2278q.3,2.327.6009,4.6485c.1307,1.01.2617,2.0247.3938,3.0357" fill="#d89b76"/>
          <path d="M451.0938,569.9457c-.036.1374-.08.27-.1287.4-.2515.0279-.5028.0585-.75.0862a1.2224,1.2224,0,0,1,.1034-.0843,2.4505,2.4505,0,0,1,.7756-.4024" fill="#d89b76"/>
          <path d="M484.1541,563.5909l-.085.01c-.17-.1247-.3434-.2491-.52-.3707-.157.02-.3076.0361-.4635.0543q-6.5557.7536-13.1144,1.5073,4.3166-1.2187,8.6159-2.4757c1.7824-.5183,2.9478-.6341,4.0522.2239.1012.0822.204.1683.3051.2665.4242.2523.8265.5115,1.21.7841" fill="#fbf4ea"/>
          <path d="M488.7215,569.1973c-.3313.0379-.6664.0773-.9978.1139q-20.0131,2.3042-40.0291,4.6059c-.8447.0946-1.69.1945-2.5361.2931h-.0013q-1.6126.1815-3.2238.3681-5.7171.6594-11.4306,1.3146,3.9921-1.6938,7.9948-3.3856a2.4668,2.4668,0,0,1,1.86-.03c.0706.0265.1415.0555.2107.0807.1157.0469.23.0912.3415.1357.02.0091.0422.0167.0627.0257.1265.0487.25.0963.371.1414.2108.0821.4105.157.6019.226.0652.0241.1289.0471.1912.0676.4746.1667.8937.2979,1.2783.3908.0459.0124.0915.0222.1358.0321.0524.012.1021.0228.1517.0336.0737.013.1446.0262.2129.0383a.3473.3473,0,0,1,.036.0053c.1109.0168.22.03.3252.0391.0479.0057.0943.0089.1421.0119.0411.0022.0783.0047.1166.0045.106.0053.2088.003.3115-.002.0421-.0018.0841-.005.1247-.0093s.0853-.0077.1259-.012l.1307-.0177c.0327-.0051.0652-.0115.0991-.0179.0274-.0047.056-.0108.0832-.0181a.7166.7166,0,0,0,.0752-.0175c.0429-.01.0855-.0222.13-.0321.03-.0088.0569-.0161.0865-.0262.0246-.0072.0491-.0156.0736-.0227.0335-.0117.0644-.022.0979-.0337.0424-.015.0861-.0315.13-.0493.04-.0148.0834-.0326.123-.05.0268-.0125.0551-.0226.0832-.0352.0485-.0234.0982-.0469.1492-.0719.0357-.0172.07-.0355.1044-.0526.0508-.0263.1017-.0525.1524-.0814.0736-.04.1508-.0838.2252-.1316.167-.0983.337-.21.5153-.3329.0442-.0284.0894-.0594.1344-.0932.1342-.0958.277-.1989.4222-.3074.1925-.1451.3947-.3027.61-.4746.0525-.0409.1073-.0846.1621-.13.0549-.0424.11-.0874.1669-.1353.1135-.089.2292-.1847.3473-.2833.03-.0247.0611-.0481.0909-.0741.0325-.0249.0623-.05.0946-.0771.26-.2148.5361-.444.8309-.6878.2476-.0277.4987-.06.75-.0875.1283-.0149.2606-.03.3915-.045q7.2806-.8373,14.56-1.6757,9.769-1.1233,19.5485-2.249l.017-.0013,1.32-.1537c.2645.3236.5112.6579.7438.9984q.2176.3145.4187.6384c.0376.0619.0766.125.1142.1869.0392.0644.0755.1264.1132.19q.2809.4742.53.9628" fill="#fbf4ea"/>
          <path d="M448.5213,571.82c-.2144.1718-.4165.3308-.6092.4733q.2887-.2177.6092-.4733" fill="#e2e8f0"/>
          <path d="M449.3835,571.1214c-.031.0274-.0623.0509-.0933.0783.03-.0273.06-.0494.0894-.0767l.0039-.0016" fill="#e2e8f0"/>
          <path d="M491.56,578.5716c-.149.0916-.2954.1831-.44.2757l-.0478.0313q-3.0171,1.9381-6.0405,3.8634-3.1914,2.0442-6.3648,4.1-2.8231,1.8306-5.6084,3.69c-.0857.0553-.1656.1167-.248.1809a4.9206,4.9206,0,0,0-1.9237,2.8068c-.04.2644-.07.5282-.1009.7906a22.5272,22.5272,0,0,0-.085,3.2047c.0359.7831.1085,1.5634.2109,2.3362.0445.3308.09.6589.1345.99q.21,1.5748.423,3.1457.2244,1.6572.449,3.3169c.14,1.0486.283,2.0984.4219,3.1471q.2262,1.6549.4526,3.3126c.14,1.05.2829,2.0971.4218,3.1472q.226,1.653.4527,3.3126.2123,1.5747.4283,3.1453.2264,1.657.4541,3.3151.216,1.5707.4309,3.1439.2285,1.6589.46,3.3174.214,1.5707.4309,3.1438.23,1.6547.4618,3.3119.2221,1.5741.44,3.1445.2322,1.6545.4685,3.3128.218,1.57.4478,3.1412.2287,1.6608.4714,3.3165.222,1.57.4506,3.1424.1487,1.0387.2985,2.0761.09.6194.2012,1.23c.1862,1.0466.4153,2.0833.6666,3.1184.2663,1.0934.56,2.1808.8562,3.2693.2841,1.0314.5722,2.0624.8513,3.0981q.2181.8.4219,1.6047.2142.83.43,1.6623c.2681,1.0285.54,2.0581.821,3.0989q.3069,1.1419.6178,2.3033c1.0765,4.1351-4.58,4.0716-10.0771,4.9127-11.8946,1.8231-23.8739,2.0983-35.8242,2.4453-3.2258.0936-6.5713.6715-9.6854.0292l-.0027,0a10.6507,10.6507,0,0,1-1.2973-.3432,1.978,1.978,0,0,1-1.1132-.8864,19.43,19.43,0,0,1-.9568-1.7485,3.5508,3.5508,0,0,1-.3047-1.0958c-.06-.6822-.1186-1.3619-.172-2.0433q-.146-1.6689-.2787-3.3361-.1357-1.5825-.2527-3.1637-.1383-1.6695-.26-3.3388-.12-1.5817-.2344-3.1651-.1183-1.671-.2341-3.3408-.1083-1.5864-.2083-3.17c-.0751-1.1156-.1422-2.2291-.2107-3.3438l-.002-.01c-.0653-1.053-.1123-2.1112-.1461-3.1677-.04-1.1156-.0662-2.2374-.09-3.3555-.0224-1.0627-.0433-2.1242-.07-3.1866-.0264-1.1179-.06-2.2352-.111-3.3539q-.0376-.8508-.0881-1.6969c-.0313-.4916-.0613-.9832-.0952-1.4746q-.1006-1.67-.2185-3.3419-.1082-1.5865-.2253-3.1684c-.0829-1.1137-.1631-2.2262-.2486-3.3383-.0347-.4847-.0722-.9705-.1082-1.4538-.0438-.5712-.0864-1.1425-.1292-1.7177q-.13-1.668-.2575-3.3337c-.0825-1.0556-.1612-2.1128-.2437-3.1684-.0791-1.0624-.16-2.13-.2377-3.1926l.0112-.0259c.0014-.0173.0012-.037.0011-.0555-.0027.016-.0042.0307-.0082.0481a.0488.0488,0,0,1-.0078-.0152.0532.0532,0,0,0,.0006.025c-.5712.0254-1.1424.052-1.7137.0761a.0513.0513,0,0,0-.0249.0032q-.8847.0361-1.7637.0785a2.8241,2.8241,0,0,1-.4119-.0169c-.3237-.038-.6491-.08-.9715-.1179l-1.9563-.2386h-.0014c-.2744-.0324-.5476-.0662-.8221-.0985s-.5491-.0674-.8235-.1c-1.6925-.2068-3.3874-.4108-5.305-.643a2.19,2.19,0,0,1-.5751-.1685,2.2525,2.2525,0,0,1-.5836-.3712c-.9125-.834.0213-1.9838.4013-2.8757.081-.1882.1623-.3739.2432-.5648.4777-1.1211.9622-2.2413,1.4427-3.3613q.7692-1.7726,1.5375-3.5426c.4857-1.12.9766-2.2424,1.4638-3.3615q.777-1.7753,1.5516-3.5476.7406-1.68,1.473-3.3623.7772-1.7731,1.549-3.5474.7365-1.6811,1.4639-3.36.7631-1.7761,1.5258-3.54c.0222-.0558.0436-.1063.066-.1595a8.1643,8.1643,0,0,1,2.6348-3.3483,11.04,11.04,0,0,1,2.3443-1.3432q3.678-1.5773,7.37-3.1436,5.7156-.6534,11.4307-1.3133c1.0724-.1234,2.1486-.2484,3.2224-.3693l.0027,0c.8458-.0973,1.69-.1984,2.536-.2931q20.0131-2.3041,40.0291-4.6059c.3314-.0365.6665-.076.9978-.1139a26,26,0,0,1,1.3323,3.1375c.0151.0253.0273.0468.041.0722.5706.9942,1.1388,1.9925,1.7167,2.9966.1607.2786.3214.5558.4809.8371a1.7221,1.7221,0,0,1-.7323,2.3312" fill="#fbf4ea"/>
          <path d="M420.4029,616.5467l-.0127.0247a.0747.0747,0,0,0,.0035-.024l.0019-.0107c.0028.0024.0032.0077.0073.01" fill="#396db9"/>
          <path d="M436.6277,554.3856a.7456.7456,0,0,1,.193-1.4168,47.9485,47.9485,0,0,0,10.46-2.9326.7472.7472,0,0,1,.8857,1.13c-3.09,4.2723-6.95,5.286-11.5384,3.2189" fill="#feb78c"/>
          <path d="M459.4737,514.0171a.7041.7041,0,0,0-1.2916.4249l1.1938,22.8453a5.7745,5.7745,0,0,1-5.0654,6.0343,103.6436,103.6436,0,0,0-23.6519,2.898,6.2549,6.2549,0,0,1-6.9116-5.07l-4.0243-21.7a.7053.7053,0,0,0-1.3651-.0832,22.9252,22.9252,0,0,1,41.1161-5.35" fill="#feb78c"/>
          <path d="M460.5863,515.9524q.21.4042.3991.8208-.1914-.4157-.3991-.8208" fill="#feb78c"/>
          <path d="M462.8828,523.2727c-.0191-.1333-.0383-.2665-.06-.3983-.0129-.0849-.0246-.1712-.04-.2558-.0174-.11-.036-.2179-.0572-.3259-.0159-.0886-.03-.1787-.0476-.2659-.0664-.3423-.14-.68-.2222-1.0161-.0237-.1052-.05-.21-.0776-.3151-.0317-.1244-.0648-.2488-.0977-.3718q-.0351-.126-.0706-.2562c-.03-.0968-.0581-.195-.0865-.2933-.0437-.1433-.0873-.2853-.1321-.4259-.0305-.0915-.06-.18-.09-.2706-.0258-.08-.0526-.1572-.08-.2371-.1044-.3026-.2179-.6031-.3351-.8994-.0374-.095-.0763-.1924-.115-.2859-.0451-.1089-.09-.2165-.1364-.324-.0351-.0819-.0717-.165-.1082-.2481a.21.21,0,0,1-.0144-.0333q-.0639-.14-.1275-.2758c-.1277-.2783-.2617-.5523-.3979-.8221-.0539-.1029-.1079-.2072-.1619-.3115-.0491-.0927-.1-.184-.15-.2767s-.1008-.1826-.1526-.2752c-.0516-.09-.1032-.1811-.1575-.2709-.1059-.1809-.2142-.359-.3239-.5371-.0554-.0883-.1109-.1766-.1675-.2635a.7041.7041,0,0,0-1.2915.425l1.1937,22.8452a5.7723,5.7723,0,0,1-5.0654,6.0331,103.7891,103.7891,0,0,0-23.652,2.8979,6.2568,6.2568,0,0,1-6.9128-5.0686l-4.0229-21.7a.7043.7043,0,0,0-1.3638-.0834l-.0908.2881c-.03.096-.0582.1931-.0867.29s-.0568.1944-.0838.2928c-.0263.09-.051.1848-.0771.2765q-.0861.3333-.1678.6728c-.0377.1678-.0766.3371-.11.5073q-.12.5715-.2116,1.1488c-.0127.0947-.0284.1857-.04.28-.0124.0828-.0249.163-.0347.2443-.0214.1561-.04.312-.0576.4678-.01.1024-.0218.2036-.0312.3073s-.02.2049-.0287.3072c-.0052.0532-.0094.1037-.0109.1553-.0065.0718-.0117.1435-.0169.2152-.014.22-.0279.4418-.0352.6629-.0028.0689-.0054.14-.0068.2105-.0092.2846-.0133.5662-.0092.8524.0007.0977.0025.1927.0044.2889.0009.0832.0044.1661.0067.25.0017.0752.0047.1515.0077.2266.0028.0909.0068.18.0135.271.0048.0987.0093.1961.0167.2946.0071.113.0155.226.0254.3414.009.1024.0165.2035.0269.3084.0015.02.0029.0394.0058.06.0185.1953.04.3932.0648.5868l1.8,14.7011a22.9206,22.9206,0,0,0,18.53,19.7413c.3644.0693.7332.1277,1.1042.1793l0,.0026a23.0513,23.0513,0,0,0,10.6515-1.065q.3069-.1081.6132-.224a22.9137,22.9137,0,0,0,14.5964-24.207l-1.8023-14.7c-.0121-.11-.0282-.22-.0418-.331m-14.7167,27.8937c-3.09,4.2736-6.9514,5.2861-11.5384,3.2189a.7457.7457,0,0,1,.193-1.4168,47.9312,47.9312,0,0,0,10.46-2.9325.7469.7469,0,0,1,.8858,1.13" fill="#71331b"/>
          <path d="M436.6277,554.3856a.7456.7456,0,0,1,.193-1.4168,47.9485,47.9485,0,0,0,10.46-2.9326.7472.7472,0,0,1,.8857,1.13c-3.09,4.2723-6.95,5.286-11.5384,3.2189" fill="#71331b"/>
          <path d="M424.7505,528.5763c-.0366-.7038-.1451-2.8178-.1451-2.8178l10.0948.8938-.7635,1.4513Z" fill="#71331b"/>
          <path d="M453.7106,526.197c-.0444-.7561-.18-3.0252-.18-3.0252l-11.04,2.1808,1.0183,1.4573Z" fill="#71331b"/>
          <path d="M432.5574,532.2611a2.116,2.116,0,1,1-2.3571-1.8436,2.1173,2.1173,0,0,1,2.3571,1.8436" fill="#31241c"/>
          <path d="M431.5315,532.2523a.7528.7528,0,1,1-.8386-.6559.7533.7533,0,0,1,.8386.6559" fill="#f1f1f1"/>
          <path d="M449.3186,529.9079a2.1153,2.1153,0,1,1-2.3571-1.8436,2.1157,2.1157,0,0,1,2.3571,1.8436" fill="#31241c"/>
          <path d="M447.0669,529.387a.7527.7527,0,1,1-.4375.9715.7531.7531,0,0,1,.4375-.9715" fill="#f1f1f1"/>
          <path d="M448.1661,551.1664c-3.09,4.2736-6.9514,5.2861-11.5384,3.2189a.7457.7457,0,0,1,.193-1.4168,47.9312,47.9312,0,0,0,10.46-2.9325.7469.7469,0,0,1,.8858,1.13" fill="#f1f1f1"/>
          <path d="M459.4485,512.207a10.8783,10.8783,0,0,1-.7116,5.3418c-.0343.0884-.071.1809-.1094.2683L420.5689,522.48a11.2871,11.2871,0,0,1-1.6628-3.1247,10.4664,10.4664,0,0,1-.4882-2.1228c-.982-8.0113,7.4091-15.6337,18.7379-17.0212,10.431-1.2771,19.72,3.1749,21.8931,10.1414a10.6173,10.6173,0,0,1,.4,1.8547" fill="#adadad"/>
          <rect x="416.3517" y="514.8993" width="2.0046" height="8.1661" transform="translate(-59.8807 54.4674) rotate(-6.9684)" fill="#adadad"/>
          <rect x="420.3331" y="514.4107" width="2.0053" height="8.1662" transform="translate(-59.792 54.9469) rotate(-6.9684)" fill="#adadad"/>
          <rect x="418.3427" y="514.655" width="2.0047" height="8.1661" transform="translate(-60.1428 55.0238) rotate(-7.0062)" fill="#cdcfcd"/>
          <rect x="422.3242" y="514.167" width="2.0053" height="8.1662" transform="translate(-59.7477 55.1866) rotate(-6.9684)" fill="#cdcfcd"/>
          <rect x="426.3062" y="513.6797" width="2.0053" height="8.1662" transform="translate(-59.6592 55.6662) rotate(-6.9684)" fill="#cdcfcd"/>
          <rect x="424.3153" y="513.9234" width="2.0053" height="8.1662" transform="translate(-59.7034 55.4264) rotate(-6.9684)" fill="#adadad"/>
          <rect x="430.2871" y="513.1925" width="2.0053" height="8.1662" transform="translate(-59.5707 56.1455) rotate(-6.9684)" fill="#cdcfcd"/>
          <rect x="428.2968" y="513.436" width="2.0046" height="8.1661" transform="translate(-59.6149 55.9058) rotate(-6.9684)" fill="#adadad"/>
          <rect x="434.2691" y="512.7037" width="2.0053" height="8.1662" transform="translate(-59.4819 56.625) rotate(-6.9684)" fill="#cdcfcd"/>
          <rect x="432.2781" y="512.9481" width="2.0053" height="8.1662" transform="translate(-59.8305 56.7109) rotate(-7.0062)" fill="#adadad"/>
          <rect x="438.2506" y="512.2165" width="2.0046" height="8.1661" transform="translate(-59.3934 57.1044) rotate(-6.9684)" fill="#cdcfcd"/>
          <rect x="436.2602" y="512.4601" width="2.0053" height="8.1662" transform="translate(-59.4377 56.8648) rotate(-6.9684)" fill="#adadad"/>
          <rect x="442.2322" y="511.7292" width="2.0053" height="8.1662" transform="translate(-59.3049 57.5839) rotate(-6.9684)" fill="#cdcfcd"/>
          <rect x="440.2418" y="511.9729" width="2.0046" height="8.1661" transform="translate(-59.3492 57.3442) rotate(-6.9684)" fill="#adadad"/>
          <rect x="446.2141" y="511.2406" width="2.0053" height="8.1662" transform="translate(-59.2162 58.0634) rotate(-6.9684)" fill="#cdcfcd"/>
          <rect x="444.2232" y="511.4848" width="2.0053" height="8.1668" transform="translate(-59.2606 57.8237) rotate(-6.9684)" fill="#adadad"/>
          <rect x="450.1956" y="510.7532" width="2.0046" height="8.1661" transform="translate(-59.1277 58.5428) rotate(-6.9684)" fill="#cdcfcd"/>
          <rect x="448.2052" y="510.9969" width="2.0053" height="8.1662" transform="translate(-59.1719 58.3031) rotate(-6.9684)" fill="#adadad"/>
          <rect x="454.1771" y="510.2659" width="2.0053" height="8.1662" transform="translate(-59.0391 59.0223) rotate(-6.9684)" fill="#cdcfcd"/>
          <rect x="452.186" y="510.5097" width="2.0053" height="8.1662" transform="translate(-59.0834 58.7825) rotate(-6.9684)" fill="#adadad"/>
          <rect x="458.1592" y="509.778" width="2.0053" height="8.1662" transform="translate(-59.2506 59.8441) rotate(-7.0062)" fill="#cdcfcd"/>
          <rect x="456.1682" y="510.0224" width="2.0053" height="8.1662" transform="translate(-58.9949 59.262) rotate(-6.9684)" fill="#adadad"/>
          <polygon points="462.395 517.579 460.653 517.791 459.66 509.685 461.402 509.474 462.395 517.579" fill="#adadad"/>
          <path d="M441.0476,541.0521a5.5182,5.5182,0,0,1-2.5842,1.0837c-.638.0872-1.8821.2088-2.1149-.6124a2.2474,2.2474,0,0,1,.1791-1.3009c.16-.4635.345-.9183.547-1.3625a15.6215,15.6215,0,0,1,1.4792-2.5519c.2782-.3957-.3123-.8589-.5931-.4629a16.575,16.575,0,0,0-1.7146,3.0262c-.3986.9251-1.038,2.2338-.47,3.21.5167.8912,1.7139.92,2.6177.8206a6.309,6.309,0,0,0,3.1092-1.251.3762.3762,0,0,0-.4552-.5986" fill="#d89b76"/>
          <path d="M482.3364,671.7165c-1.2452.1429-2.4942.2887-3.74.43q-27.1307,3.1233-54.2551,6.2421c-.0986-1.1112-.1908-2.2255-.2774-3.3362q28.712-3.3,57.42-6.6019c.1468.5345.2855,1.0669.4232,1.6033.1429.5546.2844,1.1066.4288,1.6624" fill="#cd3b2c"/>
          <path d="M480.6321,665.3515c-.9441.1073-1.8841.2169-2.8281.3255q-26.9973,3.1074-53.9933,6.212-.1381-1.6694-.26-3.3374,28.1128-3.234,56.2271-6.4669c.2647,1.09.5583,2.1783.8546,3.2668" fill="#cd3b2c"/>
          <path d="M479.11,658.9652c-.7006.08-1.3971.1608-2.099.2408q-26.846,3.0882-53.6933,6.1792c-.08-1.1152-.1565-2.2267-.2355-3.3406q27.7634-3.1942,55.528-6.3871.15,1.0386.3,2.0773c.0584.4117.1273.8238.2,1.23" fill="#cd3b2c"/>
          <path d="M478.16,652.5144c-.6482.0747-1.2925.1477-1.94.2237q-26.6733,3.0674-53.3478,6.1363-.1086-1.6718-.2081-3.344,27.5121-3.1637,55.0251-6.33.2286,1.6589.4713,3.3139" fill="#cd3b2c"/>
          <path d="M477.2407,646.0574c-.6035.0714-1.2111.14-1.8148.2091q-26.4551,3.0453-52.9117,6.088c-.0382-1.117-.0663-2.2387-.09-3.3568q27.172-3.1263,54.3481-6.253.236,1.6542.4685,3.3127" fill="#cd3b2c"/>
          <path d="M476.3344,639.6008c-.567.0647-1.1338.132-1.7009.1953q-26.1389,3.01-52.2794,6.0145c-.0263-1.1165-.0594-2.2352-.11-3.3526q26.8125-3.0878,53.628-6.1691.2282,1.6549.4619,3.3119" fill="#cd3b2c"/>
          <path d="M475.4383,633.1435c-.533.0608-1.0632.1227-1.5974.1836q-25.8877,2.9772-51.78,5.9588-.1006-1.67-.2185-3.3419,26.5691-3.06,53.1382-6.1154.2283,1.6569.4581,3.3149" fill="#cd3b2c"/>
          <path d="M474.55,626.6829c-.5014.06-1,.1141-1.5.1738q-25.7185,2.9607-51.4321,5.9184c-.0829-1.1137-.163-2.2249-.2486-3.34q26.3628-3.0343,52.7271-6.0663.2262,1.6549.4541,3.3138" fill="#cd3b2c"/>
          <path d="M473.6667,620.2246c-.4687.0547-.9429.1072-1.41.1618q-25.2156,2.9034-50.4292,5.8014c-.2319.0252-.4649.0531-.6966.08q-.13-1.67-.259-3.3362c.5842-.0647,1.1679-.1345,1.752-.2005q25.2943-2.9131,50.5928-5.8215.2224,1.6572.45,3.3154" fill="#cd3b2c"/>
          <path d="M472.7923,613.7643c-.4425.0514-.8865.1-1.3291.1518q-24.2379,2.787-48.4757,5.5768c-.7855.0915-1.5712.18-2.3567.2718q-.1211-1.5974-.24-3.1937l-.003-.0235c-.57.0253-1.14.0518-1.7124.076q2.129-.2457,4.2541-.4884,24.707-2.8458,49.4119-5.6848c.15,1.1061.3,2.2081.4514,3.314" fill="#cd3b2c"/>
          <path d="M471.9167,607.3041c-.4151.0468-.83.0935-1.2452.1429q-32.6182,3.7536-65.2339,7.5059c-.914-.8366.02-1.9876.3986-2.8755q.1234-.2845.2432-.5648,32.6988-3.7636,65.391-7.5255.2225,1.6591.4463,3.317" fill="#cd3b2c"/>
          <path d="M470.9118,599.8515c.0444.3308.09.6589.1331.99-.3888.0461-.7764.09-1.1665.1357Q438.7,604.5661,407.5236,608.15q.7674-1.7725,1.5375-3.5426,30.817-3.5483,61.64-7.093c.0358.783.1085,1.5647.211,2.3375" fill="#cd3b2c"/>
          <path d="M472.8105,590.7112a4.93,4.93,0,0,0-1.9236,2.8094c-.04.2631-.0705.5256-.1.7892-.567.0647-1.1352.1308-1.7008.1966q-29.2773,3.37-58.5614,6.7384.7772-1.7733,1.5516-3.5476,30.3657-3.4909,60.7339-6.986" fill="#cd3b2c"/>
          <path d="M485.032,582.7433q-3.1916,2.0421-6.3663,4.0976-5.1888.5982-10.3725,1.1948-27.3705,3.1491-54.7435,6.3.7773-1.7733,1.5478-3.5473,34.9674-4.02,69.9345-8.0447" fill="#cd3b2c"/>
          <path d="M491.6676,578.5068q-.2388.1446-.4671.2883a.405.405,0,0,1-.1776.0634q-11.7622,1.3551-23.5222,2.7074-25.1058,2.8893-50.2106,5.7759a.4229.4229,0,0,1-.4373-.5881q.5712-1.32,1.1384-2.6426a.4217.4217,0,0,1,.34-.2538q36.7387-4.227,73.48-8.454c.1531.2646.3036.5308.4568.7967a1.7037,1.7037,0,0,1-.6008,2.3068" fill="#cd3b2c"/>
          <g opacity="0.3">
            <g clip-path="url(#clip-path)">
              <g clip-path="url(#clip-path-2)">
                <path d="M422.93,616.1354q.0748.8205.0865,1.6416c.01.5724-.0007,1.1437-.0293,1.7176-.0243.4891-.0632.978-.1163,1.4705-.0644.59-.1474,1.1771-.2475,1.7656-.0946.5392-.2,1.0739-.3225,1.6113-.1388.6178-.2977,1.2331-.4726,1.8456-.1307.4614-.2738.9171-.4236,1.3706-.0461.1434-.0951.2831-.1439.4254-.0453-.5724-.0877-1.1423-.1306-1.7176q-.13-1.668-.2575-3.335-.1218-1.5816-.2424-3.1671c-.0791-1.0625-.16-2.13-.239-3.1925l-.0018-.0237c-.5725.0255-1.1423.0521-1.7137.0761a.06.06,0,0,0-.0261.0033q-.8828.036-1.7624.0784a2.8255,2.8255,0,0,1-.412-.0169c-.3224-.038-.649-.08-.9714-.1178l-1.9564-.2386h-.0013c-.2745-.0324-.549-.0661-.8234-.0985s-.5476-.0649-.8234-.0972l0-.0026c.1789-.4174.3658-.8341.5636-1.2463.1229-.264.25-.527.3838-.7866V614.1c.2572-.5183.531-1.0273.814-1.5357.1726-.3073.3668-.6255.5774-.9357a8.3394,8.3394,0,0,1,.9487-1.164l.0039,0a4.2934,4.2934,0,0,1,2.7271-1.381c.0369-.0014.0735-.0068.113-.0084a3.51,3.51,0,0,1,2.4076.7834,5.23,5.23,0,0,1,1.23,1.4469,7.4218,7.4218,0,0,1,.7377,1.6961,7.6253,7.6253,0,0,1,.1915.7636c.0457.2237.0852.4519.1242.6748.0948.5634.1632,1.1275.2082,1.6959" fill="#333"/>
              </g>
            </g>
          </g>
          <path d="M416.6794,616.7143c-.0149.0474-.0285.0959-.0408.1431-.3573,1.1609-.7039,2.3237-1.0477,3.4876q-.2887.9643-.5655,1.9292-.2062.6888-.4059,1.3772c-.34,1.1584-.68,2.322-1.0216,3.4831q-.4792,1.652-.9753,3.3066-.5158,1.746-1.053,3.4881-.51,1.6623-1.0407,3.3155-.5609,1.7513-1.1564,3.5c-.27.7874-.5432,1.5723-.8239,2.3605-.1146.3228-.228.6442-.3467.966q-.6275,1.7622-1.2674,3.5159c-.4061,1.1092-.809,2.2233-1.22,3.3355q-.6459,1.7535-1.3,3.5157c-.4139,1.11-.8287,2.2261-1.2464,3.3374q-.6594,1.7586-1.32,3.5186-.63,1.6672-1.262,3.34-.6675,1.7572-1.3332,3.5195-.6324,1.6694-1.2634,3.34-.6693,1.7594-1.3345,3.52-.63,1.6692-1.2568,3.34c-.4408,1.1738-.8844,2.3465-1.32,3.5172-.4164,1.1126-.834,2.2252-1.2451,3.3373q-.6513,1.7619-1.2951,3.5167-.1156.31-.2273.6191c-1.52,4.154-4.2756,8.1994-3.982,12.71a.9384.9384,0,0,1-1.1632.9793c-.3486-.089-.7021-.1894-1.1036-.2969a.9362.9362,0,0,0-.99.3418c-.5151.6907-1.0759,1.44-1.74,2.3309a1.2732,1.2732,0,0,1-1.3895.4574c-1.5282-.466-2.9091-.8861-4.2185-1.2864a1.539,1.539,0,0,1-.9215-2.1777c2.7371-5.309,5.617-10.1718,7.4659-15.19.03-.0774.0574-.1508.0847-.2281q.733-2.02,1.4591-4.0439.628-1.7562,1.2521-3.5108c.3964-1.1137.7894-2.2205,1.178-3.3323q.6242-1.754,1.2337-3.5082c.3915-1.1093.7766-2.2156,1.1654-3.3261q.61-1.7549,1.2138-3.5092.5773-1.6633,1.1443-3.3246.6063-1.7545,1.201-3.5043c.3768-1.1109.7567-2.2168,1.1323-3.3263q.5926-1.7516,1.1827-3.5017c.3741-1.1107.7475-2.2148,1.1192-3.3253q.5849-1.749,1.1695-3.4994.554-1.6594,1.1022-3.324.585-1.747,1.1617-3.4988c.2655-.7976.5308-1.5978.7937-2.3951.1011-.3087.2-.6158.2954-.9266q.558-1.7371,1.0544-3.4869.4718-1.6455.9033-3.2986c.3076-1.1533.599-2.312.8893-3.468.2748-1.098.5474-2.1906.82-3.2871q.4235-1.7351.8629-3.4687.335-1.3282.686-2.6526l.2239.027c1.9162.2323,3.6125.4362,5.3036.6417l0,.0027c.2745.0337.5475.0648.8221.0985s.549.0661.8234.0985h.0013l1.9564.2387c.3224.038.649.08.9727.1177.068.0081.1347.0164.204.0257" fill="#fdb78b"/>
          <path d="M420.3957,616.5369a.0277.0277,0,0,1-.0076-.0139.0518.0518,0,0,0,0,.025l.0017.0224.0127-.0234c0-.0185.0012-.0384.0012-.0556-.0029.0148-.0044.0294-.0085.0455" fill="#e2e8f0"/>
          <path d="M420.4029,616.5467l-.0127.0247a.0747.0747,0,0,0,.0035-.024l.0019-.0107c.0028.0024.0032.0077.0073.01" fill="#396db9"/>
          <path d="M490.0953,572.4067q-11.7,1.3445-23.3861,2.6906-22.9614,2.6386-45.9212,5.2823a11.0182,11.0182,0,0,1,2.3456-1.3433q3.6759-1.5771,7.37-3.1436,5.7156-.6534,11.4294-1.3132,1.6124-.1874,3.2224-.3693l.0026,0c.8458-.0973,1.69-.1984,2.5374-.2932q20.0131-2.3041,40.0291-4.6059c.3314-.0366.6652-.0759.9978-.1139a26,26,0,0,1,1.3323,3.1375c.0138.0254.0246.047.041.0722" fill="#cd3b2c"/>
          <path d="M486.8016,566.2219q-.66.0768-1.32.1511l-.0169.0025q-9.7749,1.124-19.5483,2.2518-7.2826.8354-14.56,1.673c-.1309.015-.2618.0313-.3914.0463-.25.0265-.5028.0572-.75.0862.0321-.03.0658-.0564.1033-.0856a2.3912,2.3912,0,0,1,.7758-.4c6.2413-1.7152,12.4912-3.4034,18.7259-5.1366.05-.0064.1-.0114.1506-.0178h.0013q6.556-.7517,13.1144-1.5086c.1544-.0181.3065-.0334.4622-.0529.178.12.351.2445.52.3693a14.9529,14.9529,0,0,1,2.7333,2.6212" fill="#cd3b2c"/>
          <path d="M500.2216,558.6574a3.5809,3.5809,0,0,0,.1431,1.6929c.0222.067.0422.1408-.0419.1814-.0779.0362-.1217-.02-.1613-.0738-.0718-.095-.1437-.1914-.2143-.2878-.0412-.0577-.0745-.079-.1106.0043a2.4543,2.4543,0,0,1-.926,1.0593,2.5621,2.5621,0,0,0-.8291.8726c-.0655.1131-.1135.1246-.23.0567a2.7342,2.7342,0,0,0-1.155-.3485,2.5,2.5,0,0,1-1.3082-.4546c-.0616-.0469-.0839-.0268-.0919.0425-.0082.1036-.0216.2076-.0362.3117-.0091.0733.0008.1716-.1069.1783-.113.0084-.1063-.0977-.1317-.1724-.1133-.3151-.21-.6367-.3462-.9422a4.3426,4.3426,0,0,0-.36-.5661c-.0386-.0579-.0892-.1162-.031-.1865s.1269-.0332.1887-.0009a3.6444,3.6444,0,0,0,1.6388.4076.112.112,0,0,1,.0572.0049c.0416.0273.1058.0556.1124.0907s-.0416.0982-.08.1169a2.5883,2.5883,0,0,1-.2743.0944c-.0348.01-.0708.0237-.1057.0342,0,.0133.0006.0264,0,.0383a1.45,1.45,0,0,0,.9015.0821.5686.5686,0,0,0,.3644-.71q-.2769-1.1124-.5565-2.2247c-.0282-.1128-.0577-.2255-.0833-.3384-.0192-.0805-.0636-.1089-.1425-.0871-.1205.0314-.2413.0575-.3587.0953a.2777.2777,0,0,0-.1149.0891.4413.4413,0,0,1-.5916.1062.4284.4284,0,0,1-.1422-.5626.4386.4386,0,0,1,.5587-.1934.36.36,0,0,0,.1768.0158c.1159-.0218.2306-.0594.3474-.0879.0725-.0186.1027-.0565.0823-.1355-.0353-.1374-.0579-.281-.1035-.4149a.2607.2607,0,0,0-.1332-.1221.6794.6794,0,0,1-.4214-.7465.6687.6687,0,0,1,.645-.56.6429.6429,0,0,1,.6181.3555.6334.6334,0,0,1-.0693.738.2224.2224,0,0,0-.0481.24c.0417.1171.0757.236.1083.3551.02.0777.0627.097.1378.0769.1228-.0356.2476-.062.3688-.1014a.2608.2608,0,0,0,.1164-.0866.4355.4355,0,0,1,.5868-.1177.4268.4268,0,0,1,.1538.5591.4349.4349,0,0,1-.5634.2.383.383,0,0,0-.1779-.0119,2.5758,2.5758,0,0,0-.2928.076c-.1293.036-.14.0553-.1034.19q.2322.8306.466,1.6649.1135.4075.2257.8138a.5893.5893,0,0,0,.942.3617,4.1094,4.1094,0,0,0,.3806-.2991.52.52,0,0,0,.0748-.1125,1.0776,1.0776,0,0,0-.1308-.0008c-.06.0084-.1209.0261-.182.0386-.0717.0133-.1533.0339-.1854-.06-.0314-.0848.0329-.1253.0948-.1629a3.3121,3.3121,0,0,0,.7882-.6239c.1536-.1712.2915-.3584.4338-.5407.0433-.0574.0834-.1211.1677-.0891.087.0332.0714.1083.0608.1777" fill="#31241c"/>
        </g>
        <g id="boat-2" data-name="boat">
          <path d="M555.8614,690.9327A37.3269,37.3269,0,0,0,527.8357,713.34C338.637,736.628,162.61,755.2391,26.921,759.5059q-3.393-6.9953-6.4955-14.1851a3.3466,3.3466,0,0,1,.1475-2.9677,3.3032,3.3032,0,0,1,2.41-1.6849c203.7466-31.1191,359.925-52.4518,491.5-67.1062a5.8621,5.8621,0,0,0,3.21-1.3865l18.7577-16.027a3.1981,3.1981,0,0,1,1.66-.7575q7.3215-1.1394,14.6594-2.2535Z" fill="#e2ddd9"/>
          <path d="M392,686.92q63.1342-8.0462,122.3469-14.6673a4.5566,4.5566,0,0,0,2.493-1.0849l18.7434-16.0246a4.7565,4.7565,0,0,1,2.3247-1.0578c58.0074-8.9646,112.68-17.1552,147.7255-20.4643l.105-.0078a3.87,3.87,0,0,1,4.2646,4.4219c-1.84,20.1408-12.0382,46.33-24.7888,74.3983a5.573,5.573,0,0,1-.277.5356c-10.4629,17.31-25.9076,37.0226-45.8688,56.9279-.9378.3339-1.9043.6555-2.8971.9948,19.5251-19.1993,35.9818-39.3309,47.6336-58.6043a3.1658,3.1658,0,0,0,.2067-.3984c3.4373-7.5572,7.0631-15.7756,10.4526-24.1877,6.92-17.1648,12.8708-35.1276,14.222-49.7926a2.759,2.759,0,0,0-.71-2.2582,2.623,2.623,0,0,0-2.14-.7254l-.0774.0058c-32.9879,3.1163-82.9,10.5049-132.9886,18.2063q-7.3446,1.1212-14.6594,2.2535a3.2,3.2,0,0,0-1.66.7588L517.6935,672.175a5.85,5.85,0,0,1-3.2113,1.3867c-131.5745,14.6557-287.7531,35.987-491.5,67.1062a3.3026,3.3026,0,0,0-2.41,1.6848,3.3508,3.3508,0,0,0-.1476,2.9677q3.111,7.1966,6.4957,14.1865a348.5089,348.5089,0,0,0,35.59,58.4417,86.7146,86.7146,0,0,0,12.9626,13.7829l-1.7072.1271-.0608.07A86.8361,86.8361,0,0,1,61.4605,818.74a351.12,351.12,0,0,1-42.2376-72.8942,4.6649,4.6649,0,0,1,3.571-6.4711c118.003-18.0269,231.9421-34.5905,338.4734-48.5028q15.476-2.0258,30.7322-3.952" fill="#333"/>
          <path d="M687.9774,635.6506a2.6254,2.6254,0,0,0-2.14-.7241l-.0788.0059c-32.9879,3.115-82.9,10.5022-132.9873,18.2049l3.09,37.7953c.6517-.1145,1.3055-.2015,1.96-.2766.5112-.0513.9173-.0948,1.3376-.1261a37.019,37.019,0,0,1,32.0194,14.3832c.6786-.09,1.3458-.1926,2.0235-.2959.8114-.0987,1.6208-.225,2.4442-.3391,1.7105-.2608,3.4331-.52,5.157-.7947q7.5172-1.1716,15.0327-2.5441c.7173-.1207,1.4207-.251,2.137-.3849,1.7331-.3126,3.4505-.64,5.1685-.9777,7.055-1.3572,14.0618-2.831,20.97-4.3873,1.727-.3927,3.4555-.7855,5.1672-1.19,8.5657-1.9966,16.9342-4.14,25.022-6.3648l.1634.0658c6.9215-17.1636,12.8708-35.1277,14.2221-49.7913a2.7618,2.7618,0,0,0-.7083-2.2583m-47.45,36.5942c-.3129.0365-.5114-.1455-.5631-.4863l-1.8629-10.4759-.0385.0147L635.4336,671.37a.61.61,0,0,1-1.1361-.0065l-5.1647-8.8858-.0118.0009.96,10.6105c.0255.3414-.1283.5642-.4032.5978a.4591.4591,0,0,1-.51-.4493,1.6143,1.6143,0,0,1-.0437-.2489l-.9315-11.43a.64.64,0,0,1,.5689-.5177.7389.7389,0,0,1,.7989.4423l5.17,8.9765.105-.0078,2.6-10.1506a.688.688,0,0,1,.5684-.49c.4327-.0586.7148.1832.8177.6787l2.0055,10.7954a1.8535,1.8535,0,0,1,.0669.3661.4756.4756,0,0,1-.3665.5938m8.9615-5.9217-1.8045.24.5459,4.1574a.4553.4553,0,0,1-.393.5575.47.47,0,0,1-.5355-.4342l-1.5191-11.3758a.5935.5935,0,0,1,.5553-.7l2.6552-.3429c2.6136-.3531,4.2064.8212,4.5386,3.3319.2975,2.2228-.9323,4.15-4.0429,4.5664m10.312,3.5623a2.94,2.94,0,0,1-1.341-.0969.5347.5347,0,0,1-.3748-.4224.4043.4043,0,0,1,.3618-.4614c.1458-.0108.3323.0281.5324.0383a2.8112,2.8112,0,0,0,1.2082-.09,1.9207,1.9207,0,0,0,.9286-.6356,3.0132,3.0132,0,0,0,.3231-2.0458l-1.1652-8.732a.4814.4814,0,0,1,.4074-.5585.4739.4739,0,0,1,.5474.4346l1.1721,8.8252c.2766,2.1187-.8087,3.5055-2.6,3.7445" fill="#e2ddd9"/>
          <path d="M674.4631,687.7007c-3.3881,8.4133-7.014,16.63-10.4512,24.189a3.37,3.37,0,0,1-.208.3984c-11.65,19.272-28.1086,39.4037-47.6324,58.603a377.7108,377.7108,0,0,1-41.2762,10.6121c-.9092.1866-1.8328.3742-2.7564.5618-104.4231,21.1228-299.126,34.511-496.666,49.666a86.6023,86.6023,0,0,1-12.9614-13.783,348.3361,348.3361,0,0,1-35.59-58.4417c135.689-4.2669,311.716-22.8779,500.9146-46.1672a39.8318,39.8318,0,0,0-2.973,20.1974c2.3279,20.9793,20.0063,36.2334,40.2543,34.7259.42-.0313.8264-.0747,1.3245-.125.9426-.11,1.87-.2449,2.7948-.4194.91-.1734,1.8186-.3863,2.699-.6235,17.1729-4.6592,29.0145-21.542,27.6135-40.3586-.0371-.4991-.0851-.9841-.1367-1.4821a39.8838,39.8838,0,0,0-8.2347-20.34c.6787-.09,1.3459-.1927,2.0248-.296.8113-.1,1.6194-.2262,2.4441-.3405,1.7225-.26,3.4462-.5207,5.1558-.7932,5.0114-.7825,10.0323-1.6317,15.0327-2.5441.7173-.1208,1.4206-.2524,2.137-.3849,1.732-.3271,3.45-.653,5.17-.9779,7.0551-1.3572,14.0605-2.8309,20.97-4.3872,1.7271-.3927,3.4542-.7854,5.1659-1.19,8.5656-1.9979,16.9356-4.14,25.0219-6.366Z" fill="#f6eef4"/>
          <path d="M662.4,666.14c.2766,2.1187-.8087,3.5056-2.6,3.7446a2.9342,2.9342,0,0,1-1.34-.0971.5308.5308,0,0,1-.3747-.421.4047.4047,0,0,1,.3617-.4628,5.1728,5.1728,0,0,1,.5312.04,2.8543,2.8543,0,0,0,1.2082-.09,1.9224,1.9224,0,0,0,.9285-.637,2.9933,2.9933,0,0,0,.3246-2.0433l-1.1653-8.7345a.4787.4787,0,0,1,.4075-.5573.4718.4718,0,0,1,.5459.4335Z" fill="#333"/>
          <path d="M653.5316,661.7574c.2976,2.2228-.931,4.15-4.043,4.5651l-1.8045.24.5473,4.1586a.4549.4549,0,0,1-.3943.5562.4682.4682,0,0,1-.5342-.4343l-1.52-11.373a.5939.5939,0,0,1,.5552-.7016l2.6551-.3442c2.6135-.3531,4.2065.8225,4.5386,3.3332m-1.82,2.869a3.0065,3.0065,0,0,0,.8813-2.7067c-.2933-2.1835-1.6766-2.8319-3.4944-2.5922l-2.34.3062.8042,6.0134,1.4116-.1962a5.59,5.59,0,0,0,2.7369-.8245" fill="#333"/>
          <path d="M652.5935,661.92a3.0066,3.0066,0,0,1-.8814,2.7067,5.5933,5.5933,0,0,1-2.7369.8244l-1.4129.1963-.8029-6.0134,2.34-.3063c1.8177-.24,3.2.4089,3.4944,2.5923" fill="#e2ddd9"/>
          <path d="M640.8939,671.65a.4769.4769,0,0,1-.3664.5952c-.313.0352-.5114-.1468-.5632-.4876l-1.8628-10.476-.0385.0161-2.6294,10.0709a.6094.6094,0,0,1-1.1362-.0066l-5.1646-8.8844-.0118.0009.96,10.6091c.0255.3415-.1283.5642-.4031.5979a.4585.4585,0,0,1-.51-.4493,1.5585,1.5585,0,0,1-.0435-.2477l-.9316-11.43a.64.64,0,0,1,.5688-.5191.7424.7424,0,0,1,.7989.4423l5.17,8.9765.105-.0078,2.6-10.1492a.6878.6878,0,0,1,.5695-.4914c.4315-.0572.7137.1859.8166.68l2.0054,10.7955a1.753,1.753,0,0,1,.0668.3647" fill="#333"/>
          <path d="M616.1715,770.8911c.993-.3381,1.9594-.6609,2.8972-.9949a421.11,421.11,0,0,1-47.6641,40.795,4.7134,4.7134,0,0,1-2.1006.8576q-122.4613,18.2473-240.967,27.2083-115.24,8.58-226.4174,7.5356a4.9871,4.9871,0,0,1-.6359-.0451c-7.3194-.9341-14.3612-4.3833-21.2365-9.2844a76.42,76.42,0,0,1-6.3423-5.0332l.0608-.0706,1.7073-.1271q2.5806,2.2027,5.3263,4.1581c7.3906,5.26,14.1461,8.2157,20.6513,9.0519a3.3046,3.3046,0,0,0,.4907.0282c72.622.772,148.7621-1.7539,226.2979-7.5266,77.2981-5.7551,158.3329-14.9035,240.8747-27.19a3.405,3.405,0,0,0,1.4985-.6252,425.0377,425.0377,0,0,0,45.5591-38.738" fill="#333"/>
          <path d="M573.2789,728.7446a11.866,11.866,0,0,1-2.3594,8.5731,10.9094,10.9094,0,0,1-7.4457,4.2506l-.3941.0293a11.4016,11.4016,0,0,1-11.9973-10.3949,11.8631,11.8631,0,0,1,2.3581-8.573,10.9211,10.9211,0,0,1,7.447-4.252l.3953-.0294a11.4026,11.4026,0,0,1,11.9961,10.3963" fill="#f6eef4"/>
          <path d="M616.1715,770.8911a425.0377,425.0377,0,0,1-45.5591,38.738,3.405,3.405,0,0,1-1.4985.6252c-82.5418,12.2861-163.5766,21.4345-240.8747,27.19-77.5358,5.7727-153.6759,8.2986-226.2979,7.5266a3.3046,3.3046,0,0,1-.4907-.0282c-6.5052-.8362-13.2607-3.7917-20.6513-9.0519q-2.74-1.9551-5.3263-4.1581c230.2315-17.6577,456.6391-32.9164,540.6985-60.8412" fill="#353431"/>
          <path d="M595.483,725.68a35.6978,35.6978,0,0,0-12.0114-23.1768,32.78,32.78,0,0,0-24.02-8.034c-.3808.0284-.7475.0689-1.1274.11-18.4384,2.0462-31.6624,19.3238-29.5322,38.5338,2.09,18.8446,17.9116,32.56,36.0322,31.2107.3809-.0284.7462-.07,1.1261-.11,18.4385-2.0462,31.6637-19.3239,29.5323-38.5338m-20.886,3.0327.0079.1051a12.715,12.715,0,0,1-11.0369,13.4845l-.4334.0323a12.7645,12.7645,0,0,1-13.4033-11.5593c-.0041-.0736-.015-.1494-.0166-.2232l-.0254-.3415a12.7141,12.7141,0,0,1,11.02-13.7065c.1421-.0237.2879-.0346.4323-.0454a12.7645,12.7645,0,0,1,13.4033,11.5593,6.1567,6.1567,0,0,1,.0517.6947" fill="#cd3b2c"/>
          <path d="M560.9947,714.4882a4.6161,4.6161,0,0,0-.4966.0515,14.9654,14.9654,0,0,0,2.7824,29.7629l.5122-.0381a14.9735,14.9735,0,0,0-2.798-29.7763m2.3866,25.8465-.394.0294a11.0209,11.0209,0,0,1-1.9619-21.9165l.2627-.0195a11.0265,11.0265,0,0,1,2.0932,21.9066m-2.3866-25.8465a4.6161,4.6161,0,0,0-.4966.0515,14.9654,14.9654,0,0,0,2.7824,29.7629l.5122-.0381a14.9735,14.9735,0,0,0-2.798-29.7763m2.3866,25.8465-.394.0294a11.0209,11.0209,0,0,1-1.9619-21.9165l.2627-.0195a11.0265,11.0265,0,0,1,2.0932,21.9066m-2.3866-25.8465a4.6161,4.6161,0,0,0-.4966.0515,14.9654,14.9654,0,0,0,2.7824,29.7629l.5122-.0381a14.9735,14.9735,0,0,0-2.798-29.7763m2.3866,25.8465-.394.0294a11.0209,11.0209,0,0,1-1.9619-21.9165l.2627-.0195a11.0265,11.0265,0,0,1,2.0932,21.9066" fill="#cd3b2c"/>
          <path d="M572.6555,728.1043a10.8838,10.8838,0,0,1-9.3058,12.2226l-.3678.0274a11.1275,11.1275,0,0,1-2.0714-22.1117c.12-.0195.2434-.0286.3656-.0377a10.8772,10.8772,0,0,1,11.3794,9.8994m-3.1061,7.4653a10.2229,10.2229,0,0,0,1.9972-7.3365,9.72,9.72,0,0,0-10.1869-8.9054l-.3336.0248a9.2228,9.2228,0,0,0-6.3163,3.6357,10.2044,10.2044,0,0,0-1.9971,7.3365,9.7146,9.7146,0,0,0,10.1854,8.9041l.3349-.0249a9.2262,9.2262,0,0,0,6.3164-3.6343" fill="#333"/>
          <path d="M572.6555,728.1043a10.8838,10.8838,0,0,1-9.3058,12.2226l-.3678.0274a11.1275,11.1275,0,0,1-2.0714-22.1117c.12-.0195.2434-.0286.3656-.0377A10.8772,10.8772,0,0,1,572.6555,728.1043Zm-3.1061,7.4653a10.2229,10.2229,0,0,0,1.9972-7.3365,9.72,9.72,0,0,0-10.1869-8.9054l-.3336.0248a9.2228,9.2228,0,0,0-6.3163,3.6357,10.2044,10.2044,0,0,0-1.9971,7.3365,9.7146,9.7146,0,0,0,10.1854,8.9041l.3349-.0249A9.2262,9.2262,0,0,0,569.5494,735.57Z" fill="none" stroke="#333" stroke-miterlimit="10" stroke-width="1.3169"/>
          <path d="M599.4123,725.254a39.8838,39.8838,0,0,0-8.2347-20.34,37.02,37.02,0,0,0-32.0195-14.3845c-.42.0313-.8264.0748-1.3376.126-.6546.0765-1.3084.1635-1.9588.2779a37.3279,37.3279,0,0,0-28.0272,22.4061,39.846,39.846,0,0,0-2.9716,20.1973c2.3279,20.9793,20.0062,36.2335,40.2543,34.7259.42-.0312.8264-.0747,1.3245-.125.9426-.11,1.87-.2449,2.7947-.4193.91-.1734,1.8187-.3863,2.699-.6236,17.173-4.6592,29.0146-21.542,27.6136-40.3586-.0371-.499-.0851-.9841-.1367-1.482M558.324,694.58c.38-.0428.7465-.0833,1.1273-.1116a32.7816,32.7816,0,0,1,24.021,8.0351A35.71,35.71,0,0,1,595.4836,725.68c2.13,19.21-11.0938,36.4863-29.5323,38.5326-.38.0415-.7465.0833-1.1273.1116-18.1206,1.3492-33.9426-12.3674-36.0309-31.2108-2.13-19.21,11.0937-36.4875,29.5309-38.5337" fill="#333"/>
          <path d="M316.2937,124.2481Q347.12,293.84,368.74,468.33q13.4168,108.343,23.259,218.59-15.2633,1.9287-30.7322,3.9519l-.0556-.392q-1.3488-17.5843-2.9734-37.2757-.6162-7.4795-1.2823-15.2732c-3.5625-42.3676-8.0489-91.6125-13.5707-148.0408q-6.1993-63.3112-14.2155-138.8043Q322.46,288.1111,314.35,216.4329q-6.0026-53.2435-12.861-111.3887a27.85,27.85,0,0,1,7.42,2.2987,11.2207,11.2207,0,0,1,5.7567,7.97c.5522,2.9816,1.09,5.9511,1.628,8.9351" fill="#e2ddd9"/>
          <path d="M358.2382,653.2033l-.4991.0372L2.6677,673.8806a1.89,1.89,0,0,1-1.6953-2.923L15.17,649.3818a8.7875,8.7875,0,0,1,7.8258-3.9356c.5314.0252,1.06.0518,1.6047.0918,87.8692,4.7989,200.9116,2.4426,331.4353-7.5261l.92-.0817q.6594,7.793,1.2824,15.2731" fill="#e2ddd9"/>
          <path d="M356.956,637.931l-.92.08c-130.5235,9.97-243.566,12.325-331.4352,7.5262l.009-.2516C29.1739,593.282,35.1349,544.95,42.4165,500.0051c92.4578,13.2376,193.4447,8.2015,300.6939-10.0825l.2749-.0324c5.5218,56.4283,10.0068,105.672,13.5707,148.0408M334.909,617.76a10.7309,10.7309,0,1,0-9.9038,11.4986A10.7319,10.7319,0,0,0,334.909,617.76m-272.0283,6.007a10.7309,10.7309,0,1,0-9.9039,11.4973,10.7318,10.7318,0,0,0,9.9039-11.4973" fill="#fbf4ea"/>
          <path d="M343.3851,489.89l-.2748.0336c-107.2491,18.284-208.2361,23.32-300.6927,10.0811,8.6439-53.43,19.1242-102.0594,31.2736-146.3627,81.7848-9.0075,167.3212-8.9184,255.4784-2.5563q8.04,75.55,14.2155,138.8043" fill="#cd3b2c"/>
          <path d="M314.35,216.4331q8.1312,71.701,14.8188,134.6525c-88.1572-6.3621-173.6936-6.4512-255.4784,2.5563C86.2966,307.6658,100.69,266.3662,116.6729,229.21l.0686.0346c49.917-12.1139,118.1066-15.91,197.4658-12.8Z" fill="#fbf4ea"/>
          <path d="M314.35,216.4331l-.1431.0107c-79.3592-3.11-147.5488.6864-197.4658,12.8l-.0686-.0346C162.0072,123.8121,220.1108,51.7535,286.4393,1.1451a2.3589,2.3589,0,0,1,3.7773,1.62l11.2728,102.279q6.8451,58.1507,12.861,111.3886" fill="#cd3b2c"/>
          <path d="M323.4117,607.8557a10.7309,10.7309,0,1,1-9.9052,11.4974,10.7319,10.7319,0,0,1,9.9052-11.4974m10.184,10.0017a9.4139,9.4139,0,1,0-8.6883,10.0875,9.42,9.42,0,0,0,8.6883-10.0875" fill="#333"/>
          <path d="M323.5088,609.1685a9.4146,9.4146,0,1,1-8.6884,10.0862,9.42,9.42,0,0,1,8.6884-10.0862" fill="#333"/>
          <path d="M51.3834,613.8627A10.73,10.73,0,1,1,41.4782,625.36a10.7318,10.7318,0,0,1,9.9052-11.4973m10.184,10.0016a9.4139,9.4139,0,1,0-8.6883,10.0875,9.42,9.42,0,0,0,8.6883-10.0875" fill="#333"/>
          <path d="M51.4805,615.1755a9.4146,9.4146,0,1,1-8.6884,10.0862,9.42,9.42,0,0,1,8.6884-10.0862" fill="#333"/>
          <path d="M527.8353,713.34C338.6367,736.6289,162.61,755.24,26.9207,759.5069c-.1717,0-.3293.0113-.501.0109" fill="none" stroke="#333" stroke-miterlimit="10" stroke-width="1.3169"/>
          <path d="M674.3,687.6342c-8.0866,2.225-16.4564,4.3682-25.0221,6.3647-1.7117.4048-3.4388.7975-5.1658,1.1915-6.9081,1.5576-13.915,3.0287-20.97,4.386-1.7188.326-3.4377.6521-5.17.9778-.7163.1339-1.42.2655-2.1357.3848q-7.5026,1.3687-15.034,2.5442c-1.7227.2749-3.4452.5338-5.1557.7946-.8235.1141-1.6328.24-2.4442.3391-.679.1034-1.358.2067-2.0248.296" fill="none" stroke="#333" stroke-miterlimit="10" stroke-width="1.3169"/>
          <polyline points="553.997 651.882 554.001 651.936 557.175 690.835" fill="none" stroke="#333" stroke-miterlimit="10" stroke-width="4.0074"/>
          <path d="M392.0752,687.746c-.02-.2758-.0555-.55-.0761-.8263Q382.17,576.6853,368.74,468.3286q-21.6043-174.4975-52.4461-344.08c-.5377-2.984-1.0771-5.9548-1.6293-8.9364a11.2156,11.2156,0,0,0-5.7553-7.9689,27.85,27.85,0,0,0-7.42-2.2987q6.8431,58.151,12.861,111.3888,8.1313,71.7009,14.8188,134.6524,8.04,75.5505,14.2155,138.8043c5.5218,56.4282,10.0069,105.6732,13.5707,148.0407q.6594,7.7931,1.2823,15.2732,1.6255,19.7031,2.9734,37.2758" fill="none" stroke="#333" stroke-miterlimit="10" stroke-width="1.3169"/>
          <path d="M357.7393,653.2405,2.6678,673.8806a1.89,1.89,0,0,1-1.6953-2.923l14.198-21.5758a8.7876,8.7876,0,0,1,7.8258-3.9356c.5314.0251,1.06.0518,1.6047.0918,87.8692,4.7989,200.9116,2.4426,331.4352-7.5261" fill="none" stroke="#333" stroke-miterlimit="10" stroke-width="1.3169"/>
          <path d="M24.61,645.2855c4.5652-52.0039,10.5249-100.3363,17.8078-145.2809,8.6438-53.43,19.1241-102.0594,31.2735-146.3627C86.2967,307.6658,100.69,266.3661,116.6729,229.21,162.0072,123.8121,220.1108,51.7535,286.4393,1.1451a2.3584,2.3584,0,0,1,3.7773,1.62l11.2728,102.2789" fill="none" stroke="#333" stroke-miterlimit="10" stroke-width="1.3169"/>
          <path d="M116.7411,229.2434c49.9171-12.1126,118.1065-15.91,197.4657-12.8" fill="none" stroke="#333" stroke-miterlimit="10" stroke-width="1.3169"/>
          <path d="M73.4692,353.6712a1.2713,1.2713,0,0,0,.2222-.03c81.7836-9.0074,167.3213-8.9184,255.4772-2.5563" fill="none" stroke="#333" stroke-miterlimit="10" stroke-width="1.3169"/>
          <path d="M42.2307,499.9789c.0667.0083.12.0188.1868.0258,92.4566,13.2389,193.4435,8.2015,300.6927-10.0811" fill="none" stroke="#333" stroke-miterlimit="10" stroke-width="1.3169"/>
          <path d="M553.5884,455.4925c-66.896,9.2856-128.0438,13.7986-184.5716,12.8043l-.2747.035q-21.6111-174.507-52.4533-344.0889C410.5262,201.61,495.1276,300.6521,560.7677,442.3071a9.3519,9.3519,0,0,1-7.1793,13.1854" fill="#fbf4ea"/>
          <path d="M553.5884,455.4925c-66.896,9.2856-128.0438,13.7986-184.5716,12.8043l-.2747.035q-21.6111-174.507-52.4533-344.0889C410.5262,201.61,495.1276,300.6521,560.7677,442.3071A9.3519,9.3519,0,0,1,553.5884,455.4925Z" fill="none" stroke="#333" stroke-miterlimit="10" stroke-width="1.3169"/>
          <path d="M316.29,124.2433c-.2248-.1813-.4365-.3637-.6613-.545" fill="none" stroke="#333" stroke-miterlimit="10" stroke-width="1.3169"/>
          <path d="M73.7659,831.8593l1.7073-.1271c230.2315-17.6577,456.6391-32.9165,540.6985-60.8413.9917-.3379,1.9581-.6608,2.8972-.9948q.0774-.0236.1547-.0511" fill="none" stroke="#333" stroke-miterlimit="10" stroke-width="1.3169"/>
          <g clip-path="url(#clip-path-3)">
            <path d="M496.6927,379.3026a57.1892,57.1892,0,0,1-.8631,15.0658q-.1674.8643-.3593,1.72-.4941,2.196-1.1541,4.3289c-.1778.5732-.3626,1.1415-.5583,1.7055q-.8207,2.3865-1.8478,4.6789-.3719.8319-.77,1.6513a57.1169,57.1169,0,0,1-101.1929,3.0323q-.36-.6368-.702-1.2868-.915-1.7286-1.71-3.5254-.2928-.66-.5691-1.33-.6834-1.6506-1.2627-3.3552c-.154-.4547-.3041-.91-.4466-1.3692a57.1024,57.1024,0,1,1,111.4354-21.3161" fill="#cd3b2c"/>
            <path d="M440.8972,382.8047l.0847,1.1386a.4393.4393,0,0,1-.1935.3987l-.9425.6433a.4478.4478,0,0,1-.4439.033l-1.0247-.4968a.4418.4418,0,0,1-.25-.3657l-.0848-1.1386a.4384.4384,0,0,1,.1936-.3973l.94-.6444a.4541.4541,0,0,1,.4439-.0331l1.0275.498a.4359.4359,0,0,1,.25.3643" fill="#cd3b2c"/>
            <path d="M470.962,379.3444q.128.9214.1966,1.8605.0634.853.0792,1.7029a24.8356,24.8356,0,0,1-5.3925,1.0195,19.1,19.1,0,0,1-5.843-.4022l-1.0969.7512a.66.66,0,0,1-.3255.1154.6535.6535,0,0,1-.339-.0659l-1.1659-.5656a14.2449,14.2449,0,0,1-4.8235,1.1951,19.1172,19.1172,0,0,1-4.237-.1851,8.574,8.574,0,0,0-.3487-3.904,20.6581,20.6581,0,0,1,4.3093-.8292,14.8015,14.8015,0,0,1,4.9109.44l1.0164-.6977a.6777.6777,0,0,1,.3257-.1127.6852.6852,0,0,1,.3388.0633l1.2836.6215a14.3493,14.3493,0,0,1,5.3065-1.3592,23.242,23.242,0,0,1,5.805.3523" fill="#fbf4ea"/>
            <path d="M490.094,377.855c-1.5907-.6132-4.3612-.0623-8.37,1.1157a9.4465,9.4465,0,0,1-2.4735.3716l-.6512.0155a.9125.9125,0,0,1-.9309-.85l-.0263-.3532a.3474.3474,0,0,0-.3816-.3189l-.4627.0291a37.47,37.47,0,0,0-10.2891-20.619l.2367-.28a.3522.3522,0,0,0-.0318-.4981l-.2678-.2271a.91.91,0,0,1-.3025-.87.8441.8441,0,0,1,.1683-.3823l.3985-.5183a9.3872,9.3872,0,0,1,1.7673-1.769c3.32-2.5345,5.1957-4.5136,5.8555-6.08a2.9157,2.9157,0,0,0-.4179-2.8463c-.5943-.5157-1.6056-.5474-2.8732.0211-1.5554.6955-3.1208,3.0464-5.1162,6.7182a9.3357,9.3357,0,0,1-1.4782,2.0156l-.4507.4733a.9143.9143,0,0,1-1.2578.062l-.27-.2335a.3508.3508,0,0,0-.4957.0475l-.2213.2555a37.4469,37.4469,0,0,0-22.2787-7.2141l-.0312-.3661a.3481.3481,0,0,0-.3733-.3314l-.3507.0261a.9112.9112,0,0,1-.8724-.4725.5924.5924,0,0,1-.03-.0652.8233.8233,0,0,1-.0719-.2561l-.0879-.6484a9.6116,9.6116,0,0,1,.004-2.5c.5675-4.1373.7019-6.9614-.1346-8.4416-.6873-1.2139-1.5218-1.78-2.3071-1.7219-.8523.0635-1.822,1.2106-2.0228,2.0443-.397,1.6552-.06,4.361,1.1143,8.3686a9.5029,9.5029,0,0,1,.3769,2.4718l.01.6542a.9138.9138,0,0,1-.8486.9294l-.3533.0263a.35.35,0,0,0-.3188.383l.0291.4429a37.4584,37.4584,0,0,0-19.7309,9.9984l-.3141-.2645a.3452.3452,0,0,0-.4943.03l-.2311.2668a.9123.9123,0,0,1-.7054.3153.9428.9428,0,0,1-.5477-.19l-.5171-.4a9.4812,9.4812,0,0,1-1.7578-1.776c-2.5172-3.3372-4.4124-5.4331-6.0547-5.8879-1.3406-.3756-2.3345-.192-2.8474.4035a2.9229,2.9229,0,0,0,.0069,2.8783c.8886,1.4525,3.0316,3.1338,6.6928,5.1457a9.4067,9.4067,0,0,1,2.0112,1.49l.4695.4523a.9266.9266,0,0,1,.2257.353.9131.9131,0,0,1-.1716.9055l-.2325.2655a.3546.3546,0,0,0,.0423.4974l.2769.2435a37.4626,37.4626,0,0,0-7.3644,22.2463l-.4618.04a.3464.3464,0,0,0-.3289.3718l.0263.3532a.9194.9194,0,0,1-.7974.9785l-.6463.0812a9.4337,9.4337,0,0,1-2.5-.0014c-4.14-.5712-6.9617-.7059-8.4428.136-1.2151.6887-1.782,1.5179-1.7235,2.3033.0637.8562,1.212,1.8232,2.0457,2.0239,1.6551.3958,4.36.0584,8.37-1.1131a9.2672,9.2672,0,0,1,2.4719-.3741l.6515-.0116a.915.915,0,0,1,.9333.8457l.0261.3506a.3431.3431,0,0,0,.38.319l.5-.0266a37.2919,37.2919,0,0,0,4.4648,12.54c.2659.4675.5459.9287.8332,1.3827q.2315.369.4731.7307v.0013a36.9353,36.9353,0,0,0,2.8647,3.7655c.2039.2371.4115.4725.6229.7038.0964.1063.1969.215.2945.32l0,.0039a13.3006,13.3006,0,0,0,1.8531.3242,11.847,11.847,0,0,0,1.7629.0351q.3649-.0211.7257-.0619c-.041-.0366-.0849-.0769-.1287-.1145q-.3184-.2874-.627-.582a34.7993,34.7993,0,0,1,20.89-59.867c.1729-.0195.3449-.0323.5182-.0452a34.8052,34.8052,0,0,1,37.2846,32.1211c.0056.0748.0113.1523.0142.2261a34.9922,34.9922,0,0,1-.1354,6.3408,34.2587,34.2587,0,0,1-2.8,10.2288c-.103.23-.21.4607-.3184.6893.1191.003.2408.0071.36.0154.0385.0024.0769.0035.1141.0074.1633.0116.3268.0258.4922.0478a10.1343,10.1343,0,0,1,1.909.4363c.0986-.2186.1959-.4372.2891-.658q.4272-.9925.793-2.0122c.082-.2292.1627-.4584.2393-.6886.0781-.2277.1522-.4564.225-.685a37.6656,37.6656,0,0,0,1.7479-10.7725l.4983-.0477a.3442.3442,0,0,0,.33-.3718l-.0261-.3507a.9139.9139,0,0,1,.1524-.5778c.018-.0251.0359-.05.0563-.0769a.9312.9312,0,0,1,.5863-.32l.6461-.0851a9.2875,9.2875,0,0,1,2.5014.0039c4.1384.5648,6.8643.4979,8.4425-.1386a2.9277,2.9277,0,0,0,1.7235-2.3046c-.0585-.7853-.7432-1.5214-2.0456-2.0226m-86.8188,8.7418-.0618.1287-.1694.3494a.2057.2057,0,0,1-.1722.1171l-.5292.0394a.201.201,0,0,1-.1837-.0906l-.2136-.3143-.0845-.1244a.1808.1808,0,0,1-.0339-.1.19.19,0,0,1,.0186-.1044l.23-.4779a.2051.2051,0,0,1,.1683-.1156l.5293-.0394a.21.21,0,0,1,.1875.0891l.2994.4385a.2315.2315,0,0,1,.0326.1006.2188.2188,0,0,1-.0173.1043m9.0555-27.8592-.0988.5185a.2152.2152,0,0,1-.136.1593l-.5023.1721a.1792.1792,0,0,1-.0532.0119.2.2,0,0,1-.1463-.05l-.2034-.1776-.1988-.1688a.1834.1834,0,0,1-.0422-.0523.0788.0788,0,0,1-.02-.0408.2385.2385,0,0,1-.0085-.0442.32.32,0,0,1,.0023-.057l.0984-.5223a.199.199,0,0,1,.1365-.1541l.4981-.1745a.1089.1089,0,0,1,.048-.0115.2318.2318,0,0,1,.107.0185.136.136,0,0,1,.0485.0307l.2.1726.2017.1725a.2137.2137,0,0,1,.0689.1969m24.6227-12.2246a.2141.2141,0,0,1-.09.1889l-.436.2992a.21.21,0,0,1-.1032.0328.2134.2134,0,0,1-.1056-.0172l-.4755-.2314a.2059.2059,0,0,1-.1172-.1735l-.0391-.5253a.2062.2062,0,0,1,.09-.1863l.4361-.2979a.2315.2315,0,0,1,.1017-.0353.2281.2281,0,0,1,.1071.02l.4754.23a.2152.2152,0,0,1,.117.1709Zm27.6529,8.8568-.3478.401a.2058.2058,0,0,1-.1957.0674l-.5211-.0986a.2023.2023,0,0,1-.1551-.1324l-.1747-.502a.2013.2013,0,0,1,.0417-.2025l.0739-.09.2685-.3132a.2235.2235,0,0,1,.1009-.0643.2862.2862,0,0,1,.0949-.0018l.52.1a.2025.2025,0,0,1,.1592.1334l.1733.5008a.2043.2043,0,0,1-.0378.2022m12.86,25.7085-.0305.0512-.1127.2434h-.0013l-.0869.1808a.2033.2033,0,0,1-.1726.1119l-.5253.0391a.2048.2048,0,0,1-.1872-.0851l-.1184-.1708-.147-.2188-.0352-.0463a.2521.2521,0,0,1-.0158-.2127l.2329-.4729a.2042.2042,0,0,1,.1722-.1172l.5253-.0391a.2025.2025,0,0,1,.1876.09l.299.4333a.2517.2517,0,0,1,.0159.2127" fill="#fbf4ea"/>
            <path d="M452.2248,371.3848a17.1763,17.1763,0,0,1-5.6863,7.2546,8.6008,8.6008,0,0,0-2.9135-2.5773,16.6191,16.6191,0,0,1,6.146-6.9151l.1294-1.0648a.6668.6668,0,0,1,.4015-.53l1.4291-.6c1.132-3.6141,3.7715-6.2787,7.0537-8.5409l.0485.0136c.4843.3667.9552.75,1.4181,1.15.3655.3148.7248.6354,1.0689.965a20.0615,20.0615,0,0,1-7.2289,8.5117l-.1524,1.2514a.6632.6632,0,0,1-.4.53Z" fill="#fbf4ea"/>
            <path d="M448.0615,382.7487c-.0024-.0316-.0047-.0631-.0083-.0932-.0082-.0747-.0178-.1505-.0272-.2238-.0037-.0314-.0084-.06-.0133-.09-.0033-.0262-.008-.0536-.0128-.0823-.0058-.0431-.013-.0861-.02-.1279-.0059-.0444-.0145-.0887-.023-.133-.0312-.1706-.0678-.3422-.1106-.5094-.0111-.0428-.0209-.0856-.0319-.127-.0455-.167-.0947-.3324-.1492-.496a8.3939,8.3939,0,0,0-1.1258-2.2271c-.0959-.1342-.1941-.2656-.2972-.3913-.0453-.0573-.0916-.112-.1367-.1681-.0273-.03-.052-.06-.0794-.0905s-.0577-.0656-.0852-.0979c-.0186-.02-.036-.041-.0559-.0593-.0318-.0372-.0648-.0717-.0977-.1063-.0259-.0284-.0517-.0555-.0787-.0813-.0188-.0223-.04-.0419-.0628-.064-.0359-.0382-.0729-.0738-.1127-.1117-.0443-.0456-.0911-.0883-.1366-.1325-.0369-.0342-.0764-.0683-.1147-.1037a.8927.8927,0,0,0-.0749-.0657c-.0538-.0488-.1088-.0949-.1638-.1423-.1253-.1043-.2543-.2056-.383-.303-.1327-.0971-.2665-.1914-.404-.2815-.136-.089-.2745-.1751-.4165-.2556-.07-.041-.1421-.0819-.215-.1213h-.0013a8.4728,8.4728,0,0,0-3.1225-.9666h-.0013c-.1251-.0131-.2513-.0236-.3774-.0314-.0463-.0018-.0928-.0049-.139-.0054-.0465-.0032-.0928-.005-.1405-.0068l-.1389-.0028c-.0463-.0019-.0937,0-.1425.0013-.0278,0-.0582-.0009-.0872,0-.0317,0-.0634-.0005-.0949.0018-.0185,0-.037,0-.0541.0014l-.125.0053c-.0777.0032-.1566.0077-.2354.0136-.0735.0055-.15.0125-.2231.0193-.0483.0062-.0955.011-.144.016-.0433.0045-.0864.01-.13.0162l-.115.0165c-.11.0148-.2194.0335-.3287.0549-.04.0082-.0794.0151-.1211.0235-.1483.0295-.2951.0629-.44.1014-.0415.01-.083.0207-.123.033-.03.0075-.0595.0163-.0879.025q-.165.0459-.3254.0995c-.0347.0131-.0708.0251-.1056.0356-.0347.0131-.0694.0263-.1028.038-.036.0132-.0708.0251-.1055.0382a8.3436,8.3436,0,0,0-2.2,1.2216c-.1124.0863-.2245.1778-.3325.27-.0372.0318-.0745.0636-.11.0967-.0237.0189-.047.0418-.0706.062-.0234.0229-.05.0434-.0729.0675-.0259.0244-.0532.0489-.079.0746-.07.0646-.1368.1316-.203.2-.0382.0371-.0748.0768-.1141.1167a.305.305,0,0,0-.0294.0313c-.0367.0384-.0734.0781-.1087.1177-.0416.0453-.0818.0906-.122.1358-.0266.0324-.0534.0634-.0787.0957-.0268.03-.0509.0606-.0778.09-.0254.031-.0507.0645-.0774.0956-.0252.0335-.0507.0645-.0747.0966-.0361.0463-.0709.0938-.1058.14-.0239.0334-.0491.067-.0717.1-.0361.0476-.07.095-.1017.1422q-.2127.3091-.3976.6371c-.0069.0137-.0163.029-.0245.0428-.0385.0689-.0755.139-.1125.2091-.0255.0481-.0509.0975-.0737.1467l-.0173.0331-.0012.0014a8.4741,8.4741,0,0,0-.7285,2.2226v.0012c-.0182.0912-.0314.1807-.0458.2715-.0064.0375-.0088.076-.0141.112-.0083.0482-.0141.0948-.02.1428-.0213.1759-.0357.3539-.0449.5316a8.6729,8.6729,0,0,0,.0123,1.0885c.005.067.0114.1352.0177.202.0051.0512.01.1023.0166.152a8.6515,8.6515,0,0,0,.247,1.2784c.0181.0647.0376.1319.0556.1966v.0013a8.4979,8.4979,0,0,0,1.7919,3.19c.03.0334.0575.0644.0876.0952.0189.0237.04.0458.062.0693l.06.0629c.1734.1825.3566.3551.5457.5193.096.0826.1918.164.29.2425.0647.0533.1294.1052.1977.1543.05.0372.0994.0758.1509.1116s.1019.0729.1547.1086q.0918.0625.1833.1211c.0084.0059.0182.0132.0264.0178.0472.0308.0956.06.1441.09.0748.0473.1535.0943.2307.1374.0553.0329.11.0631.1666.0919a8.4409,8.4409,0,0,0,4.6848,1.0034,8.68,8.68,0,0,0,1.4757-.2406,8.4375,8.4375,0,0,0,2.9849-1.43,8.5054,8.5054,0,0,0,3.3275-5.5907c.0051-.0373.0089-.076.014-.1133.0111-.0814.0208-.164.0279-.2464.0067-.0691.0135-.1383.0188-.2087.0021-.0424.0042-.0848.0078-.126.0063-.0929.0085-.1869.0122-.28.0019-.045.001-.0925.0028-.1388-.0007-.0462,0-.0925,0-.14l-.0006-.0079c-.0008-.0462,0-.0937-.0011-.1386-.0015-.0553-.0028-.1094-.0056-.1633,0-.0436-.004-.0895-.0073-.1342-.0023-.0487-.0046-.0973-.0082-.146l0-.0026c-.0044-.0591-.01-.1181-.0157-.1757m-7.95,7.7136a6.9276,6.9276,0,1,1,6.3923-7.4207,6.9338,6.9338,0,0,1-6.3923,7.4207" fill="#fbf4ea"/>
            <path d="M462.9073,401.02c-1.447.7852-2.8847,1.641-4.33,2.4009a14.6321,14.6321,0,0,1-3.6715-3.7821,12.003,12.003,0,0,1-.7611-1.3365l-1.3313-.2508a.6559.6559,0,0,1-.5033-.4287l-.427-1.2294a16.6682,16.6682,0,0,1-7.1945-6.0328,8.5262,8.5262,0,0,0,2.4792-2.9366,17.14,17.14,0,0,1,6.8536,6.5085l1.2654.2333a.6637.6637,0,0,1,.501.4342l.4451,1.2768a17.0184,17.0184,0,0,1,2.8208,1.5978,20.0886,20.0886,0,0,1,3.8532,3.5454" fill="#fbf4ea"/>
            <path d="M439.1642,377.7448a5.8247,5.8247,0,1,0,6.2412,5.3775,5.8267,5.8267,0,0,0-6.2412-5.3775m1.8178,6.1994a.4415.4415,0,0,1-.0427.2251c-.0093.0165-.0173.0343-.028.05s-.0227.032-.0348.0462a.1481.1481,0,0,1-.02.02.1194.1194,0,0,1-.0235.0216.0866.0866,0,0,1-.02.0186.1193.1193,0,0,1-.0239.0163l-.5869.4-.1043.0711-.2526.172c-.0126.0088-.0253.0151-.0379.0226s-.0255.0138-.0383.0187a.1946.1946,0,0,0-.0295.0115l-.0065.0017a.4378.4378,0,0,1-.206.0167.2433.2433,0,0,1-.0484-.0109c-.0175-.004-.0337-.0094-.05-.0148a.2577.2577,0,0,0-.0286-.0123l-1.0222-.4971a.3759.3759,0,0,1-.0984-.0626.5108.5108,0,0,1-.0484-.0479c-.01-.0125-.02-.0249-.0293-.0375a.1243.1243,0,0,1-.015-.0253.4054.4054,0,0,1-.0536-.1333.244.244,0,0,1-.0035-.03.0952.0952,0,0,1-.0047-.0274l-.0849-1.14a.1238.1238,0,0,1,0-.03.26.26,0,0,1-.0008-.029.4161.4161,0,0,1,.0332-.14.1467.1467,0,0,1,.0112-.0259c.0069-.0137.0151-.0275.0234-.0413a.3275.3275,0,0,1,.0408-.0546.3778.3778,0,0,1,.088-.0765l.9373-.6429a.45.45,0,0,1,.4452-.0332l1.0287.4966a.0811.0811,0,0,1,.0261.0126.1207.1207,0,0,1,.0221.0142.1949.1949,0,0,1,.0266.0191.0666.0666,0,0,1,.0223.0168c.0142.0122.0285.027.0413.0392.0129.0149.0234.0313.0351.0463a.4368.4368,0,0,1,.0755.2162Z" fill="#fbf4ea"/>
            <path d="M439.494,366.1246a15.9446,15.9446,0,0,1,1.0074,8.9721,8.6284,8.6284,0,0,0-1.5362-.0229,8.4786,8.4786,0,0,0-2.3531.5159,16.6416,16.6416,0,0,1-.4094-9.3125l-.6815-.9938a.6627.6627,0,0,1-.05-.6645l.616-1.27c-1.7023-3.3886-1.658-7.14-.87-11.0477l.1985-.1191q.908-.1231,1.8306-.19c.3638-.027.7239-.05,1.0862-.061l.1836.125a20.0936,20.0936,0,0,1,.7342,11.1027l.7689,1.122a.6688.6688,0,0,1,.0495.6645Z" fill="#fbf4ea"/>
            <path d="M442.8276,402.0148a.6612.6612,0,0,1,.1043.4968,13.3348,13.3348,0,0,0-2.3249-.8623,10.4466,10.4466,0,0,0-1.8393-.2975l.0355-.0726a15.6776,15.6776,0,0,1-1.1389-4.5491,21.3952,21.3952,0,0,1,.0914-4.8743,8.4784,8.4784,0,0,0,2.4732.175,8.6768,8.6768,0,0,0,1.4757-.2393,18.77,18.77,0,0,1,.801,6.7148,12.9661,12.9661,0,0,1-.4115,2.4367Z" fill="#fbf4ea"/>
            <path d="M472.2214,380.65l0-.0026a32.754,32.754,0,0,0-65.2882,5.34c.019.2547.0436.5144.0693.7713a32.6927,32.6927,0,0,0,11.8987,22.1776c.4175-.1222.8351-.26,1.2477-.4112-.0114-.011-.0252-.02-.038-.0315-.1485-.1144-.2944-.23-.442-.35-.0787-.0641-.1588-.1282-.235-.1951-.1662-.1382-.3309-.2752-.4931-.415-.374-.322-.738-.6528-1.0915-.9844q-1.0206-.9639-1.9423-2.0013a31.33,31.33,0,0,1-7.7063-17.0028c-.0734-.5426-.1274-1.0905-.1683-1.6395q-.0688-.9258-.0807-1.8467a31.37,31.37,0,0,1,6.69-19.9736c.3161-.4013.6378-.7976.976-1.186q.5777-.6749,1.1864-1.3058a31.3463,31.3463,0,0,1,18.6125-9.41q.9078-.1269,1.8317-.1945.5437-.04,1.085-.06a31.3506,31.3506,0,0,1,20.4991,6.4935c.4844.368.9538.7491,1.421,1.1527.3639.3123.7232.6329,1.0686.9623a31.36,31.36,0,0,1,9.6392,18.8068c.0866.6142.1525,1.2326.1992,1.86.0422.5673.0674,1.1359.0779,1.7017a31.4,31.4,0,0,1-1.6709,10.8684,31.0422,31.0422,0,0,1-2.3832,5.3078,13.32,13.32,0,0,1,1.459-.3926,32.1816,32.1816,0,0,0,2.0337-4.7879,32.5805,32.5805,0,0,0,1.6306-11.976c-.0105-.2659-.0279-.5354-.0479-.8033l-.0006-.0079c-.0114-.1536-.023-.31-.0373-.466" fill="#fbf4ea"/>
            <path d="M427.4048,370.985a16.5252,16.5252,0,0,1,7.0076,5.8275,8.59,8.59,0,0,0-2.4559,3.0023l-.0565.0042a16.0279,16.0279,0,0,1-6.6576-6.3409l-1.2266-.2282a.6624.6624,0,0,1-.5038-.4353l-.4557-1.313a21.4526,21.4526,0,0,1-8.4146-7.4144c.316-.4038.6378-.7989.9745-1.19q.578-.671,1.1892-1.3035c3.4616,1.7442,6.6913,4.1872,8.3146,7.509l1.3688.2573a.6589.6589,0,0,1,.5037.4326Z" fill="#fbf4ea"/>
            <path d="M435.5445,391.0291a16.6317,16.6317,0,0,1-6.2161,6.9665l-.0412.3346-.0895.7659a.66.66,0,0,1-.4058.5268l-1.38.5847a16.917,16.917,0,0,1-6.09,7.8512c-.2971.2307-.6.4527-.9048.6708-.09-.0672-.1792-.1359-.2688-.2045-.0114-.011-.0252-.0192-.0379-.03-.1485-.1144-.2945-.2317-.4421-.3514-.0788-.0641-.1588-.1282-.2351-.1951-.166-.1369-.3307-.2739-.493-.4136-.3739-.3221-.7379-.6529-1.0915-.9858a24.3548,24.3548,0,0,1,1.89-3.2757,18.3964,18.3964,0,0,1,5.2691-5.178l.15-1.2194a.6543.6543,0,0,1,.4-.53l1.3548-.57a17.5765,17.5765,0,0,1,5.6665-7.4142,8.5416,8.5416,0,0,0,2.9651,2.6673" fill="#fbf4ea"/>
            <path d="M431.226,382.0408a8.5647,8.5647,0,0,0,.2273,3.9751,18.7827,18.7827,0,0,1-4.0116.7675,14.2269,14.2269,0,0,1-4.9311-.4635l-1.092.7468a.64.64,0,0,1-.3255.1154.6339.6339,0,0,1-.335-.0662l-1.2164-.5869a19.1962,19.1962,0,0,1-5.6922,1.25,24.8163,24.8163,0,0,1-5.6483-.2344q-.1081-.814-.1685-1.6422c-.0459-.6159-.0719-1.232-.08-1.8441a23.395,23.395,0,0,1,5.846-1.2606,14.3071,14.3071,0,0,1,5.4629.5639l1.1586-.7914a.6584.6584,0,0,1,.3216-.1138.6652.6652,0,0,1,.3389.0646l1.0945.5286a14.81,14.81,0,0,1,4.8135-1.1705,20.4353,20.4353,0,0,1,4.2378.1612" fill="#fbf4ea"/>
            <path d="M495.8292,394.3685c-.1116.5762-.2315,1.1477-.3581,1.7183-.8515.3579-1.7066.7029-2.5717,1.0208a25.4929,25.4929,0,0,1-9.0136,1.8517,14.9209,14.9209,0,0,1-4.6106-.7528,34.2333,34.2333,0,0,1-4.26-1.9132c-.0248-.0141-.0521-.0265-.0769-.0405a.7221.7221,0,0,1,.5424-1.3346.6163.6163,0,0,1,.0913.0381c.7885.3916,1.5713.7956,2.3726,1.165.3856.1774.7773.3476,1.1731.5017.1972.0778.3955.1515.596.22.0094.002.0176.0053.0284.0085l.0082.0033c.0121.0031.0217.0076.0352.012.0473.0149.0947.03.1433.0447.0919.0289.1864.0561.281.0847a13.7561,13.7561,0,0,0,2.1556.4325c.19.0215.3808.0416.5707.0552.0665.007.13.0115.1965.0145l.0052,0,.0041.001.0066.0008.0027,0,.0026,0,.008.0007.0026,0,.0026,0,.0094.002.0305.0017c.0476,0,.0953.0034.1431.0065q.5362.02,1.0727.0046a18.5626,18.5626,0,0,0,2.2247-.2c.3605-.0533.719-.1156,1.0783-.1859.0572-.0122.117-.0246.173-.0354l.0065-.0018.0051-.0017.01-.0021.0091-.002c.0833-.0168.1665-.0348.2508-.0543q.2688-.0616.5373-.1272a46.0788,46.0788,0,0,0,7.1113-2.5354" fill="#fbf4ea"/>
            <polyline points="383.374 403.043 383.377 403.042 383.373 403.044 383.374 403.043" fill="#fbf4ea"/>
            <path d="M409.201,404.0349a.7366.7366,0,0,1-.963.3332v-.0013h-.0026c-1.7556-.717-3.4857-1.4994-5.2414-2.2178-.7722-.3162-1.5515-.62-2.3394-.8968-.06-.0207-.1207-.0425-.1815-.0618l-.0163-.0053-.0027-.0012-.0041-.0023h-.0014l-.0041-.0023-.0108-.0032-.0122-.0044-.0108-.0031-.0027-.0012q-.122-.04-.2477-.08c-.2029-.0642-.4055-.1257-.6105-.1831-.4086-.1135-.8189-.215-1.2346-.299a18.88,18.88,0,0,0-2.5787-.3507c-.0054-.0009-.1021-.0056-.1287-.0076-.0065.0005-.008-.0007-.008-.0007-.03-.003-.061-.0047-.0915-.0064-.1166-.0045-.2344-.0089-.3509-.0122-.2-.0062-.4-.01-.6-.0094-.4372-.0005-.8707.012-1.3059.0378a23.223,23.223,0,0,0-2.6051.3062q-.3324.0584-.6629.1246c-.0142.0037-.0519.0118-.078.0164l.0052-.0017-.0065.0018-.0051.0017-.004,0-.0051.0017-.0052.0017-.0066,0c-.03.0062-.06.0137-.0883.02-.1052.0237-.2092.046-.3143.071-.4271.0991-.8546.21-1.2773.3328q-1.2682.3657-2.4942.8552c-.154-.4547-.3042-.9109-.4466-1.3692a26.1383,26.1383,0,0,1,3.0739-1.0159,22.3757,22.3757,0,0,1,10.8145-.2941,33.338,33.338,0,0,1,4.94,1.7306c.9513.3967,1.8969.8069,2.8464,1.2143.6438.2756,1.2889.55,1.9372.8158a.73.73,0,0,1,.3321.9657" fill="#fbf4ea"/>
            <path d="M494.3157,400.4167q-.2668.86-.5571,1.7054c-4.4382,1.51-9.09,2.2443-13.6126.4391-2.6282-1.05-5.0372-2.7917-7.87-3.27-.2647-.0437-.5284-.0742-.7915-.0956-.0371-.0012-.0755-.0023-.1139-.0047a10.3481,10.3481,0,0,0-3.4367.4183,23.224,23.224,0,0,0-4.6166,2.005c-1.4724.7976-2.9229,1.6781-4.4174,2.4629a22.7621,22.7621,0,0,1-4.0979,1.7352,11.5646,11.5646,0,0,1-4.5437.4664,12.5551,12.5551,0,0,1-4.1245-1.3185c-2.3883-1.1626-4.6265-2.6149-7.287-2.8751-.0478-.0043-.0957-.0087-.1422-.0118-.2286-.02-.463-.0289-.6981-.03a19.3853,19.3853,0,0,0-8.778,2.674,88.5705,88.5705,0,0,1-8.249,4.2641c-.1527.06-.3054.1192-.46.1756a16.5549,16.5549,0,0,1-4.85,1.0491,13.2772,13.2772,0,0,1-1.8561-.0269,12.9084,12.9084,0,0,1-1.934-.3116.5055.5055,0,0,1-.0757-.0234,32.2609,32.2609,0,0,1-5.64-2.2727,28.9918,28.9918,0,0,0-5.1251-2.0588,18.9843,18.9843,0,0,0-5.4214-.5907,23.9979,23.9979,0,0,0-8.0808,1.75c-.1952-.44-.3866-.8824-.5692-1.33a26.5608,26.5608,0,0,1,3.5982-1.1579,21.88,21.88,0,0,1,11.1374.0159c3.2827.9375,6.1744,2.8668,9.3982,3.9341.3479.1154.7018.2211,1.06.3133.0122.0044.0257.0086.0379.0117a11.723,11.723,0,0,0,3.407.301,13.5622,13.5622,0,0,0,2.603-.4051c.4252-.1069.8464-.2307,1.2665-.3716a28.164,28.164,0,0,0,3.92-1.7075c2.7165-1.3987,5.3616-3.0826,8.0735-4.2076a16.7687,16.7687,0,0,1,7.0732-1.451h.0013a11.0872,11.0872,0,0,1,1.5906.1867,11.8323,11.8323,0,0,1,2.3714.7412c1.8785.7885,3.616,1.9189,5.5133,2.6769,3.4923,1.3934,6.79.3437,9.9567-1.2629,1.5157-.7665,3.0007-1.6614,4.4639-2.4769.9192-.5135,1.8328-.9961,2.738-1.395a16.9981,16.9981,0,0,1,2.4881-.8851,13.5446,13.5446,0,0,1,1.3738-.2951,11.5927,11.5927,0,0,1,2.3374-.1424,10.1461,10.1461,0,0,1,2.512.43c.1109.0353.2231.0706.3342.1085,2.6316.883,4.9422,2.5267,7.6008,3.33,4.1772,1.2631,8.459.2946,12.4917-1.2167" fill="#fbf4ea"/>
            <path d="M491.9105,406.801c-.248.5546-.5052,1.1073-.77,1.6525a19.2725,19.2725,0,0,1-4.45.4,15.4652,15.4652,0,0,1-5.54-1.2264c-1.6227-.6874-3.15-1.5786-4.7688-2.2728a10.2917,10.2917,0,0,0-5.4028-.8919,17.3705,17.3705,0,0,0-5.8447,2.1109c-3.6042,1.91-7.176,4.5039-11.3465,4.9279a11.0145,11.0145,0,0,1-5.6259-1.0165c-1.6785-.7453-3.2369-1.7412-4.9358-2.4414-3.9551-1.6322-8.0764-.3706-11.7369,1.4219-3.719,1.8219-7.1549,4.29-11.1859,5.4164a13.7891,13.7891,0,0,1-6.1592.3886,22.4031,22.4031,0,0,1-5.5617-1.98,40.97,40.97,0,0,0-5.52-2.378,18.64,18.64,0,0,0-5.5947-.7917,23.4811,23.4811,0,0,0-7.5219,1.3655q-.3606-.6387-.702-1.2881a24.2254,24.2254,0,0,1,10.4935-1.4138,20.0283,20.0283,0,0,1,5.6156,1.428c1.8224.7452,3.5591,1.6869,5.368,2.4647a13.9775,13.9775,0,0,0,5.9132,1.3438,16.4753,16.4753,0,0,0,6.1543-1.59c3.7841-1.675,7.1711-4.143,11.0776-5.5577a15.6156,15.6156,0,0,1,5.8259-1.0531,13.4347,13.4347,0,0,1,5.5683,1.5729,30.6207,30.6207,0,0,0,5.0583,2.3675,9.8665,9.8665,0,0,0,6.0359-.3239c3.948-1.3729,7.2735-4.0635,11.1733-5.5516a12.5419,12.5419,0,0,1,5.88-.8709,15.4443,15.4443,0,0,1,4.9479,1.6639,32.0091,32.0091,0,0,0,4.92,2.1943,14.6763,14.6763,0,0,0,5.7339.4447,22.2978,22.2978,0,0,0,2.9-.5157" fill="#fbf4ea"/>
          </g>
        </g>
      </g>
    </g>
  </g>
</svg>
