<svg xmlns="http://www.w3.org/2000/svg" viewBox="0 0 95.9959 95.5142">
  <title>brandImage</title>
  <g>
    <path d="M95.9959,47.7571A47.8288,47.8288,0,0,1,94.34,60.2706q-.193.71-.4056,1.4112-.549,1.8013-1.2321,3.5394-.2753.7-.572,1.3876-.8322,1.94-1.8308,3.7884-.3623.6713-.7448,1.33A47.775,47.775,0,0,1,4.959,67.9718q-.2607-.5538-.5055-1.1172-.6552-1.4986-1.2073-3.0468-.2028-.5682-.3917-1.144-.4668-1.42-.8446-2.8773-.1513-.5827-.2876-1.17a47.7617,47.7617,0,1,1,94.2736-10.86" fill="#cd3b2c"/>
    <path d="M49.2386,47.2132v.9552a.37.37,0,0,1-.1857.3208l-.8264.4776a.372.372,0,0,1-.3724,0l-.8242-.4776a.37.37,0,0,1-.1856-.3208v-.9552a.3671.3671,0,0,1,.1856-.32l.8242-.4786a.3774.3774,0,0,1,.3724,0l.8264.4786a.3672.3672,0,0,1,.1857.32" fill="#cd3b2c"/>
    <path d="M74.5309,46.194c.0333.5173.0483,1.0389.0483,1.5637q0,.7163-.04,1.4262a20.77,20.77,0,0,1-4.5611.5152A15.9629,15.9629,0,0,1,65.13,49l-.9616.5591a.5556.5556,0,0,1-.2791.0752.5457.5457,0,0,1-.2779-.0752l-.938-.5441a11.9219,11.9219,0,0,1-4.0974.6965,15.96,15.96,0,0,1-3.5223-.4174,7.1734,7.1734,0,0,0-.0482-3.2776,17.2466,17.2466,0,0,1,3.6456-.4239,12.38,12.38,0,0,1,4.0685.6718l.8918-.5194a.5659.5659,0,0,1,.2779-.073.5764.5764,0,0,1,.2791.073l1.0324.5989a11.9884,11.9884,0,0,1,4.5106-.8049,19.4184,19.4184,0,0,1,4.82.6546" fill="#fbf4ea"/>
    <path d="M90.5817,46.1394c-1.2889-.61-3.6338-.322-7.0509.411a7.8725,7.8725,0,0,1-2.0862.1567L80.9,46.6792a.7786.7786,0,0,1-.56-.2908.77.77,0,0,1-.1631-.4755v-.2962a.2905.2905,0,0,0-.2983-.29l-.3885-.0043a31.343,31.343,0,0,0-7.301-17.8376l.2147-.2189a.2942.2942,0,0,0,.0043-.4175l-.2093-.206A.7614.7614,0,0,1,72,25.8979a.7173.7173,0,0,1,.1642-.3091l.3649-.4067a7.8294,7.8294,0,0,1,1.5841-1.3662c2.9266-1.9082,4.6136-3.4417,5.2618-4.7081a2.4384,2.4384,0,0,0-.1717-2.4,2.2458,2.2458,0,0,0-2.3986-.161c-1.34.483-2.7924,2.3471-4.6845,5.2866a7.8182,7.8182,0,0,1-1.3586,1.5894l-.4046.366a.7648.7648,0,0,1-1.0528-.0258l-.2114-.2114a.2916.2916,0,0,0-.4154.0086l-.2006.2a31.3254,31.3254,0,0,0-18.1349-7.4018l-.0043-.307a.29.29,0,0,0-.29-.2994h-.2941a.7629.7629,0,0,1-.6986-.4486.5066.5066,0,0,1-.0215-.0558.7137.7137,0,0,1-.044-.2179l-.0333-.5462a8.1064,8.1064,0,0,1,.1589-2.0852c.7308-3.416,1.0184-5.7631.4121-7.05-.498-1.055-1.1591-1.58-1.8169-1.58a2.4487,2.4487,0,0,0-1.8148,1.58c-.4336,1.3554-.3209,3.6338.41,7.05a7.9638,7.9638,0,0,1,.1609,2.0852l-.0322.5462a.7652.7652,0,0,1-.7652.7223h-.2962a.2928.2928,0,0,0-.29.2994l-.0032.3714a31.3313,31.3313,0,0,0-17.0788,7.1142l-.2458-.24a.29.29,0,0,0-.4142-.0054l-.2093.2082a.7658.7658,0,0,1-.6085.22.7922.7922,0,0,1-.4443-.1932l-.4068-.3659a7.9754,7.9754,0,0,1-1.3565-1.59c-1.892-2.94-3.343-4.8058-4.6845-5.2866a2.25,2.25,0,0,0-2.4.1589,2.4461,2.4461,0,0,0-.1728,2.4018c.65,1.2663,2.3342,2.8021,5.2629,4.7081a7.87,7.87,0,0,1,1.5851,1.3672l.3628.4068a.7681.7681,0,0,1-.0322,1.0528l-.21.2071a.2961.2961,0,0,0,.0043.4175l.2157.221a31.3269,31.3269,0,0,0-7.5241,18.0984l-.3885.0043a.29.29,0,0,0-.2973.29v.2962a.7675.7675,0,0,1-.7255.7663l-.5441.0279a7.8619,7.8619,0,0,1-2.0852-.1567c-3.4181-.733-5.7631-1.0206-7.0509-.411-1.056.499-1.5808,1.1558-1.5808,1.8148A2.4489,2.4489,0,0,0,5.632,49.7689c1.3565.4336,3.6328.32,7.0509-.4078a7.7318,7.7318,0,0,1,2.0852-.1588l.5441.03a.7656.7656,0,0,1,.7255.7641v.2941a.287.287,0,0,0,.2973.29l.4185.0085a31.2127,31.2127,0,0,0,2.9459,10.7373q.29.61.61,1.2052c.1127.2147.23.4272.3488.6386v.0011a30.9766,30.9766,0,0,0,2.155,3.3194c.1556.21.3144.42.4765.6256.074.0945.15.1911.2253.2844v.0032a11.0625,11.0625,0,0,0,1.5261.3864,9.8663,9.8663,0,0,0,1.4682.1384c.2039.0033.4067.0011.61-.0064-.0322-.0333-.0665-.07-.1009-.1041q-.2478-.2592-.4872-.5237a29.1074,29.1074,0,0,1,21.143-48.6393c.1449-.0054.29-.0054.4346-.0054A29.1116,29.1116,0,0,1,77.213,47.7578c0,.0633,0,.1277-.0022.19a29.2207,29.2207,0,0,1-.5065,5.28A28.722,28.722,0,0,1,75.014,58.9a29.0454,29.0454,0,0,1-1.28,2.6862q-.1513.2784-.3091.5559c.1.01.2007.02.2994.0343.0322.0043.0644.0086.0955.014.1352.0193.27.0418.4068.07a8.5051,8.5051,0,0,1,1.5657.483q.1434-.264.2823-.5313.4169-.8016.7856-1.6291c.0826-.1856.1642-.3724.2425-.5591s.1556-.3713.2308-.5581a31.0487,31.0487,0,0,0,1.6977-5.8124q.29-1.51.4293-3.064l.4186-.0085a.2879.2879,0,0,0,.2983-.29v-.2941a.7639.7639,0,0,1,.1631-.4732c.0161-.0194.0333-.04.0516-.06a.7824.7824,0,0,1,.5086-.2308l.5442-.03a7.7422,7.7422,0,0,1,2.0862.1588c3.4171.7276,5.6944.8414,7.0509.4078a2.4487,2.4487,0,0,0,1.5808-1.8147c0-.659-.5258-1.3158-1.5808-1.8148M17.6217,48.04l-.059.103-.1631.2812a.1731.1731,0,0,1-.1513.0869H16.805a.1693.1693,0,0,1-.1481-.0869l-.1588-.2758-.0622-.1084a.1469.1469,0,0,1-.0226-.0858.1515.1515,0,0,1,.0226-.0859l.221-.3842a.17.17,0,0,1,.1481-.0859h.4433a.1742.1742,0,0,1,.1513.0859l.2221.3842a.1812.1812,0,0,1,.0215.0859.1748.1748,0,0,1-.0215.0858m9.2832-22.6755-.1138.4261a.18.18,0,0,1-.1234.1245l-.4293.1126a.159.159,0,0,1-.0461.0065.1634.1634,0,0,1-.1181-.05l-.1588-.1609-.1556-.1535a.1434.1434,0,0,1-.0322-.0462.0635.0635,0,0,1-.014-.0354.2026.2026,0,0,1-.0043-.0365.2915.2915,0,0,1,.0054-.0483l.1148-.4292a.167.167,0,0,1,.1234-.12l.4261-.1149a.0934.0934,0,0,1,.0408-.0064.1854.1854,0,0,1,.088.0225.1149.1149,0,0,1,.0386.0279l.1567.1567.1567.1567a.1773.1773,0,0,1,.0451.1685m21.2975-8.6671a.1772.1772,0,0,1-.0869.1513l-.3821.2222a.1894.1894,0,0,1-.1749,0l-.3821-.2222a.1727.1727,0,0,1-.0869-.1513v-.4411a.1735.1735,0,0,1,.0869-.15l.3821-.2211a.1969.1969,0,0,1,.0869-.0226.1944.1944,0,0,1,.088.0226l.3821.2211a.178.178,0,0,1,.0869.15Zm22.5156,9.105-.3145.3123a.1736.1736,0,0,1-.1674.044l-.4282-.1149a.1661.1661,0,0,1-.1213-.12l-.1148-.4292a.17.17,0,0,1,.0472-.1664l.0676-.0708.2437-.2436a.187.187,0,0,1,.088-.0483.2184.2184,0,0,1,.0794.0053l.4271.1149a.1731.1731,0,0,1,.1245.1212l.1127.4293a.17.17,0,0,1-.044.1664m9.1307,22.2419-.029.0408-.1084.1964H79.71l-.0837.1449a.1714.1714,0,0,1-.1514.0826h-.44a.1727.1727,0,0,1-.1513-.0826l-.088-.1492-.1095-.1921-.0257-.0408a.2065.2065,0,0,1-.02-.0891.2026.2026,0,0,1,.02-.089l.2232-.38a.17.17,0,0,1,.1513-.0869h.44a.1685.1685,0,0,1,.1514.0869l.2221.38a.1773.1773,0,0,1,.02.089.18.18,0,0,1-.02.0891" fill="#fbf4ea"/>
    <path d="M59.3962,38.3912a14.3625,14.3625,0,0,1-5.1932,5.6976,7.2025,7.2025,0,0,0-2.2708-2.33,13.8953,13.8953,0,0,1,5.5559-5.3863l.1749-.88a.5542.5542,0,0,1,.367-.4175l1.23-.4121c1.1687-2.9449,3.5351-5.0033,6.4134-6.686l.04.0139c.381.3359.75.6847,1.1119,1.0475.2854.2854.5645.5752.8317.8714A16.7792,16.7792,0,0,1,61.0983,36.56l-.205,1.0345a.554.554,0,0,1-.367.4175Z" fill="#fbf4ea"/>
    <path d="M55.2176,47.6116c0-.0268,0-.0526-.001-.0784-.0022-.0633-.0054-.1266-.0086-.1888-.0011-.0258-.0032-.05-.0054-.0752-.0011-.0225-.0032-.0461-.0054-.07-.0021-.0365-.0053-.073-.0085-.1084-.0033-.0376-.0076-.0741-.0118-.1116-.0151-.1449-.0355-.29-.06-.4325-.0065-.0365-.0119-.0719-.0194-.1073-.0268-.1428-.0579-.2834-.0933-.4229a7.0154,7.0154,0,0,0-.8006-1.9285c-.0719-.117-.146-.2329-.2233-.3445-.0343-.05-.07-.0987-.1041-.1481-.02-.0268-.04-.0537-.06-.0805-.0214-.029-.044-.059-.0654-.0869-.014-.0183-.0279-.0365-.0429-.0537-.0247-.0322-.0494-.0633-.0752-.0944-.0193-.0247-.04-.0494-.06-.073-.015-.0193-.0311-.0376-.0483-.0569-.0279-.0343-.0568-.0665-.0869-.1-.0343-.0408-.0708-.0794-.1062-.1191-.029-.0311-.0591-.0623-.0891-.0934-.0183-.02-.0376-.0408-.058-.06-.0418-.044-.0848-.0858-.1288-.1288-.0976-.0944-.1985-.1867-.3-.2768q-.1562-.1337-.3188-.26c-.1084-.0826-.2189-.1631-.3316-.2393-.0569-.0386-.1138-.0762-.1717-.1137h-.0011a7.0859,7.0859,0,0,0-2.5445-1h-.0011c-.1041-.0193-.2082-.0354-.3134-.0493-.0386-.0054-.0772-.0107-.1159-.014-.0386-.0053-.0772-.01-.1159-.0139l-.1159-.0108c-.0386-.0042-.0783-.0064-.1191-.0085-.0236-.0022-.0483-.0043-.073-.0054s-.0526-.0043-.0794-.0043c-.015-.0011-.03-.0021-.0451-.0021l-.1041-.0033c-.0654-.0021-.1309-.0032-.1974-.0032-.0623,0-.1256.0011-.1879.0022-.04.0021-.0794.0032-.12.0043-.0364.001-.0729.0032-.1094.0053l-.0966.0065c-.0934.0064-.1857.015-.278.0257-.0343.0043-.0676.0075-.1019.0118-.1256.0161-.25.0344-.3735.058-.0354.0053-.0708.0118-.1052.0193-.0246.0043-.05.01-.0751.0161-.0934.0182-.1856.04-.2769.0622-.03.0086-.0611.0161-.09.0236s-.06.0172-.0891.0247l-.09.0258a6.9769,6.9769,0,0,0-1.91.8822h-.0011c-.0987.0654-.1975.1341-.2941.2049-.0321.0236-.0654.0483-.0976.0741-.02.0139-.0419.0311-.0623.0472s-.044.0333-.0654.0515c-.0236.0183-.0472.0376-.0709.0569-.0622.05-.1223.1019-.1813.1545-.0344.029-.0676.0591-.102.09a.1825.1825,0,0,0-.0268.0247c-.0333.03-.0665.06-.0977.0912-.0375.0354-.074.0708-.1105.1062-.0247.0247-.0483.0494-.0719.0741s-.0462.0472-.07.0708-.0472.05-.0708.0751-.0461.05-.0687.0762c-.0333.0355-.0644.073-.0966.1095-.0225.0268-.045.0526-.0665.0794q-.0483.0564-.0934.1127-.1963.2447-.3713.5065c-.0064.0108-.015.0226-.0225.0344-.0365.0547-.0719.11-.1074.1674-.0236.0386-.0483.0784-.0708.1181l-.0161.0257-.0011.0011a7.0924,7.0924,0,0,0-.7458,1.8094v.0011c-.02.074-.0376.1481-.0548.2232-.0075.0311-.0128.0622-.0193.0923-.01.04-.0172.0783-.0247.118-.0289.1449-.0526.293-.0708.4411a7.2286,7.2286,0,0,0-.0569.9079c0,.0569.0011.1138.0022.17.001.0429.0021.0859.0043.1277a7.1232,7.1232,0,0,0,.1266,1.0818c.0107.0558.0225.1127.0343.1674v.0011a7.1423,7.1423,0,0,0,.7953,2.0262,7.0221,7.0221,0,0,0,.5012.7469c.0225.029.044.0569.0665.0848.015.02.0311.0408.0472.0612l.0472.0569c.1331.162.2748.3176.4229.4668.074.0751.1492.1481.2264.22.05.0483.102.0955.1556.1406.04.0343.0784.07.1192.103s.0805.0666.1223.1q.0724.058.1449.1127a.1506.1506,0,0,0,.0215.0161c.0375.029.0751.0569.1137.0837.06.044.1224.088.1846.1288.044.0311.088.06.1331.088a7.0812,7.0812,0,0,0,3.8452,1.1279,7.2432,7.2432,0,0,0,1.246-.1094,7.0646,7.0646,0,0,0,2.5789-1.0078,7.1171,7.1171,0,0,0,3.1219-4.4569l.0193-.0934c.014-.0676.0269-.1352.0387-.2039.01-.0569.0193-.1148.0279-.1728.0053-.0354.01-.0708.015-.1052.0107-.0772.0182-.1545.0268-.2318.0043-.0375.0075-.0773.0118-.1159.0022-.0386.0054-.0773.0086-.117V48.248c.0022-.0386.0054-.0784.0075-.1159.0022-.0462.0043-.0912.0054-.1363.0021-.0365.0021-.0751.0021-.1127.0011-.0408.0022-.0816.0022-.1223v-.0022c0-.0493-.0011-.0987-.0022-.147m-7.11,5.94a5.7942,5.7942,0,1,1,5.7931-5.7931,5.7994,5.7994,0,0,1-5.7931,5.7931" fill="#fbf4ea"/>
    <path d="M66.4663,63.7738c-1.2556.5655-2.508,1.1891-3.7605,1.7332a12.2232,12.2232,0,0,1-2.8278-3.3827,10.0127,10.0127,0,0,1-.5516-1.1612l-1.0947-.2919a.55.55,0,0,1-.3939-.39l-.279-1.0517a13.9422,13.9422,0,0,1-5.6268-5.4787,7.1387,7.1387,0,0,0,2.25-2.2955A14.33,14.33,0,0,1,59.4948,57.31l1.041.2737a.5537.5537,0,0,1,.3907.3928l.2919,1.0925a14.3029,14.3029,0,0,1,2.2537,1.5078,16.8085,16.8085,0,0,1,2.9942,3.1971" fill="#fbf4ea"/>
    <path d="M48.1074,42.8846A4.8723,4.8723,0,1,0,52.98,47.758a4.874,4.874,0,0,0-4.8723-4.8734m1.1312,5.2844a.3627.3627,0,0,1-.0494.1846.3819.3819,0,0,1-.0268.04.2612.2612,0,0,1-.0322.0365.1312.1312,0,0,1-.0172.0161.1.1,0,0,1-.02.0161.0973.0973,0,0,1-.0183.0139.1041.1041,0,0,1-.02.0129l-.5152.2973-.0912.0526-.2211.1277c-.0118.0064-.0225.0107-.0332.0161a.2182.2182,0,0,1-.0333.0139.1621.1621,0,0,0-.0247.0076l-.0064.001a.375.375,0,0,1-.1728.0011.2365.2365,0,0,1-.04-.0118.3226.3226,0,0,1-.0408-.0161.22.22,0,0,0-.0225-.0118l-.8221-.4776a.3279.3279,0,0,1-.0784-.059.4837.4837,0,0,1-.0375-.0429.3791.3791,0,0,1-.0215-.0333.098.098,0,0,1-.0107-.0215.3278.3278,0,0,1-.0365-.1148l-.0011-.0247a.09.09,0,0,1-.0021-.0236v-.9562a.0983.0983,0,0,1,.0021-.0247l.0011-.0247a.3352.3352,0,0,1,.0365-.1148l.0107-.02a.3791.3791,0,0,1,.0215-.0333.3658.3658,0,0,1,.0375-.0429.3279.3279,0,0,1,.0784-.059l.8221-.4776a.3744.3744,0,0,1,.3734,0l.8275.4776a.1041.1041,0,0,1,.02.0129.1735.1735,0,0,1,.0183.0128.1687.1687,0,0,1,.02.0172.0838.0838,0,0,1,.0172.0161.3332.3332,0,0,1,.0322.0354c.01.0129.0182.0269.0268.0408a.3627.3627,0,0,1,.0494.1846Z" fill="#fbf4ea"/>
    <path d="M49.104,33.213a13.342,13.342,0,0,1,.2833,7.5467,7.1938,7.1938,0,0,0-1.28-.1149,7.0834,7.0834,0,0,0-1.9951.2844,13.9237,13.9237,0,0,1,.2372-7.7935l-.5066-.8714a.5555.5555,0,0,1,0-.557l.5924-1.0217c-1.2095-2.932-.939-6.0582-.04-9.2681l.1728-.0869q.7664-.0467,1.539-.0462c.3048,0,.6074.0043.91.0172l.1449.1159a16.8135,16.8135,0,0,1-.0762,9.3057l.571.9841a.5555.5555,0,0,1,0,.557Z" fill="#fbf4ea"/>
    <path d="M49.6557,63.3566a.5517.5517,0,0,1,.0558.4207,11.2031,11.2031,0,0,0-1.8856-.8639,8.6658,8.6658,0,0,0-1.5153-.3617l.0343-.059a13.1119,13.1119,0,0,1-.6675-3.8646,17.8654,17.8654,0,0,1,.3788-4.06,7.11,7.11,0,0,0,2.052.3,7.2428,7.2428,0,0,0,1.2459-.1084,15.7134,15.7134,0,0,1,.2512,5.65,10.91,10.91,0,0,1-.4948,2.0069Z" fill="#fbf4ea"/>
    <path d="M75.5,47.3614v-.0021a27.3963,27.3963,0,0,0-54.79.3992c0,.2147.0043.4325.0107.6482a27.3445,27.3445,0,0,0,8.5469,19.2381q.5344-.1143,1.0668-.2662c-.01-.01-.02-.0182-.03-.0279-.1169-.1051-.2318-.2114-.3466-.32-.0622-.059-.1245-.117-.1846-.1771-.13-.1255-.2586-.25-.3853-.3766-.2919-.292-.5752-.59-.8489-.89q-.792-.8678-1.496-1.79a26.2024,26.2024,0,0,1-5.3724-14.66c-.0268-.4572-.0386-.9187-.0386-1.3791q0-.7759.0472-1.5443a26.2393,26.2393,0,0,1,6.8212-16.2449c.2887-.3156.5817-.6257.8875-.9294.3488-.351.7073-.689,1.0711-1.0153a26.2184,26.2184,0,0,1,16.1086-6.6924c.5109-.0333,1.0238-.0483,1.54-.0483.3037,0,.6074.0054.9089.0172A26.2237,26.2237,0,0,1,65.7128,27.99c.381.337.7491.6847,1.1129,1.05.2844.2833.5645.5731.8317.8693A26.2312,26.2312,0,0,1,74.53,46.1949q.0515.7758.05,1.5636,0,.7148-.0408,1.4252a26.2588,26.2588,0,0,1-2.0691,8.9612,25.9385,25.9385,0,0,1-2.317,4.28,10.9407,10.9407,0,0,1,1.2417-.2372A26.8611,26.8611,0,0,0,73.3883,58.32a27.2446,27.2446,0,0,0,2.1045-9.8873c.0075-.2232.01-.4486.01-.674v-.0064c0-.1288,0-.26-.0022-.3907" fill="#fbf4ea"/>
    <path d="M38.7184,36.5164a13.8144,13.8144,0,0,1,5.4829,5.2962,7.18,7.18,0,0,0-2.2344,2.3514H41.92a13.3992,13.3992,0,0,1-5.16-5.7019l-1.0088-.2672a.5525.5525,0,0,1-.3928-.3939l-.2994-1.1236A17.9394,17.9394,0,0,1,28.5005,29.97c.2887-.3166.5817-.6267.8875-.9315q.5232-.5232,1.0721-1.0131c2.78,1.67,5.322,3.9075,6.4692,6.7793l1.1258.3a.5523.5523,0,0,1,.3939.3927Z" fill="#fbf4ea"/>
    <path d="M44.263,53.7409a13.9075,13.9075,0,0,1-5.6182,5.425l-.0547.2758-.1223.6343a.5531.5531,0,0,1-.3714.4142l-1.1869.4014a14.1553,14.1553,0,0,1-5.5667,6.1709c-.2629.1738-.5291.34-.7963.5033-.0708-.0622-.1416-.1245-.2114-.1867-.01-.0108-.02-.0183-.03-.0279-.117-.1052-.2319-.2115-.3467-.3209-.0622-.058-.1245-.117-.1846-.1771-.13-.1245-.2586-.249-.3853-.3756-.2919-.2919-.5752-.59-.8488-.89a20.2612,20.2612,0,0,1,1.7793-2.6154A15.4049,15.4049,0,0,1,35.0357,58.98l.2007-1.0077a.5491.5491,0,0,1,.367-.4175l1.1655-.3906a14.6929,14.6929,0,0,1,5.1867-5.8328,7.1325,7.1325,0,0,0,2.3074,2.4093" fill="#fbf4ea"/>
    <path d="M41.219,45.9754a7.1749,7.1749,0,0,0-.0569,3.33,15.72,15.72,0,0,1-3.3945.3907,11.8969,11.8969,0,0,1-4.0835-.6922l-.9573.5548a.5406.5406,0,0,1-.279.0762.5352.5352,0,0,1-.2758-.0762l-.9777-.5656a16.03,16.03,0,0,1-4.8261.69,20.7739,20.7739,0,0,1-4.6963-.5463c-.0269-.4572-.0387-.9175-.0387-1.38q0-.7759.0472-1.5433a19.5789,19.5789,0,0,1,4.955-.6889,11.9566,11.9566,0,0,1,4.5213.81l1.0153-.5892a.5546.5546,0,0,1,.2758-.074.56.56,0,0,1,.279.074l.88.51a12.389,12.389,0,0,1,4.0878-.6783,17.1233,17.1233,0,0,1,3.5244.3982" fill="#fbf4ea"/>
    <path d="M94.34,60.27q-.193.71-.4056,1.4113c-.7319.2457-1.4671.48-2.2087.6911a21.3219,21.3219,0,0,1-7.6325.9852,12.4907,12.4907,0,0,1-3.7991-.9144A28.5054,28.5054,0,0,1,76.86,60.5825c-.02-.0128-.0419-.0247-.0623-.0375a.6041.6041,0,0,1,.5355-1.08.4863.4863,0,0,1,.0741.0376c.6332.3756,1.261.7609,1.906,1.1183.3112.1727.6267.338.9476.4915.16.0773.3209.1513.484.22l.0226.01.0064.0033c.01.0032.0182.0075.029.0118.0386.015.0772.0311.117.0461.0751.03.1513.059.2285.088a11.5465,11.5465,0,0,0,1.7719.4948c.1567.03.3144.0579.4722.0815.0547.01.1084.0172.1631.0247H83.56l.0032.0011.0054.0011h.0043l.0064.001h.0043l.0086.0022.0247.0032c.04.0032.0794.0086.1191.0139q.446.05.8951.0709a15.4928,15.4928,0,0,0,1.8673-.029c.3048-.0215.6074-.0515.9112-.088.0483-.0064.0987-.0129.147-.0182l.0053-.0011.0043-.0011.0086-.0011.0075-.001c.0709-.01.1417-.0194.2125-.03.1524-.0236.3048-.0472.4561-.073A38.4213,38.4213,0,0,0,94.34,60.27" fill="#fbf4ea"/>
    <polyline points="0.001 60.522 0.003 60.522 0 60.523 0.001 60.522" fill="#fbf4ea"/>
    <path d="M21.4818,62.9532a.6159.6159,0,0,1-.8242.2179V63.17h-.0022c-1.42-.7072-2.8139-1.4671-4.2337-2.1754-.6246-.3112-1.2557-.6138-1.8963-.8929-.0483-.0214-.0977-.0429-.1471-.0633l-.0129-.0053-.0021-.0011L14.359,60.03h-.0011l-.0032-.0021-.0086-.0032-.01-.0043-.0086-.0032-.0022-.0011c-.0665-.0279-.1341-.0558-.2017-.0827-.1653-.0665-.3306-.13-.498-.191-.3337-.12-.67-.23-1.0109-.3262a16.02,16.02,0,0,0-2.1292-.4529c-.0043-.0011-.0848-.0108-.1074-.014l-.0064-.001c-.0258-.0043-.05-.0076-.0762-.0108-.0966-.0107-.1943-.0225-.2919-.0322-.1664-.0171-.3327-.0332-.5-.045-.3638-.0279-.7266-.044-1.0915-.0494a19.4158,19.4158,0,0,0-2.1914.0934c-.1878.0182-.3746.04-.5613.0633-.0118.0021-.044.0064-.0655.0086l.0043-.0011-.0053.0011-.0054.001H5.5846l-.0043.0011-.0043.0011H5.5706c-.0257.0032-.05.0075-.0751.0107-.0891.0129-.1771.0258-.2662.04q-.5441.0837-1.086.1986c-.72.15-1.4327.338-2.1335.558q-.1513-.5827-.2876-1.17A22.021,22.021,0,0,1,4.3493,57.96a18.7072,18.7072,0,0,1,9.0385.4272,27.77,27.77,0,0,1,4.0126,1.75c.7695.3895,1.5326.7909,2.2988,1.1891.52.27,1.041.5387,1.5658.8006a.6111.6111,0,0,1,.2168.8263" fill="#fbf4ea"/>
    <path d="M92.7019,65.2211q-.2752.7-.5709,1.3876c-3.7959.9841-7.7217,1.3072-11.3812-.4786-2.1271-1.0389-4.0288-2.6422-6.3609-3.2164-.2189-.0536-.4367-.0955-.6546-.1288-.0311-.0032-.0633-.0075-.0944-.0118a8.6547,8.6547,0,0,0-2.8934.1363,19.3606,19.3606,0,0,0-3.9751,1.3855c-1.2771.5742-2.5424,1.2181-3.8377,1.7794a18.9989,18.9989,0,0,1-3.5255,1.1934,9.6767,9.6767,0,0,1-3.8184.1073,10.5128,10.5128,0,0,1-3.3591-1.3565c-1.92-1.1183-3.6961-2.4684-5.8993-2.85l-.1181-.0194c-.19-.03-.3842-.0525-.5806-.0676a16.2106,16.2106,0,0,0-7.4876,1.685A74.1493,74.1493,0,0,1,31,67.8107c-.1309.0408-.2629.0805-.3949.1181a13.8769,13.8769,0,0,1-4.11.5741,11.2194,11.2194,0,0,1-1.5465-.1384,10.7776,10.7776,0,0,1-1.5937-.38.4444.4444,0,0,1-.0622-.0236,27.0807,27.0807,0,0,1-4.5633-2.2462,24.1862,24.1862,0,0,0-4.1468-2.0359,15.8972,15.8972,0,0,0-4.4859-.83,20.1009,20.1009,0,0,0-6.8492.9584c-.1352-.3788-.2672-.76-.3917-1.144a22.1387,22.1387,0,0,1,3.0737-.7427,18.3044,18.3044,0,0,1,9.2884.7051c2.68.9852,4.9721,2.7742,7.595,3.8646.2834.118.571.2286.864.3273l.0311.0129a9.8421,9.8421,0,0,0,2.8236.4625,11.3676,11.3676,0,0,0,2.1957-.1771q.5425-.0933,1.08-.2307a23.6322,23.6322,0,0,0,3.3763-1.18c2.3524-.9981,4.6641-2.2387,6.9962-3.0082a14.0035,14.0035,0,0,1,5.9894-.7716h.0011a9.1609,9.1609,0,0,1,1.3147.2544,9.9745,9.9745,0,0,1,1.9328.7651c1.5175.7749,2.8966,1.8255,4.4323,2.5757,2.8268,1.3791,5.6418.7083,8.3838-.4346,1.3114-.5452,2.6057-1.2,3.8764-1.789.7995-.3714,1.59-.7169,2.3706-.9938a14.2079,14.2079,0,0,1,2.13-.5838,11.3,11.3,0,0,1,1.1644-.161,9.704,9.704,0,0,1,1.9586.0268,8.485,8.485,0,0,1,2.0681.5141c.0912.0365.1824.0729.2726.1116,2.14.8993,3.9654,2.4147,6.1333,3.25,3.4052,1.3125,7.0369.7706,10.4947-.2393" fill="#fbf4ea"/>
    <path d="M90.2993,70.3969q-.3623.6712-.7448,1.3307a16.11,16.11,0,0,1-3.7358.0569,12.9156,12.9156,0,0,1-4.545-1.3672c-1.31-.674-2.5295-1.5122-3.8367-2.1915a8.6082,8.6082,0,0,0-4.45-1.08A14.51,14.51,0,0,0,67.98,68.5446c-3.1251,1.3683-6.2653,3.3108-9.77,3.4052a9.216,9.216,0,0,1-4.63-1.1966c-1.3543-.7266-2.5917-1.6538-3.9654-2.3439-3.1981-1.6065-6.7139-.81-9.8788.4572C36.5205,70.1554,33.5016,72,30.07,72.69a11.5456,11.5456,0,0,1-5.1621-.058,18.7818,18.7818,0,0,1-4.516-1.9972,34.134,34.134,0,0,0-4.4559-2.3267,15.5747,15.5747,0,0,0-4.6179-1.0077,19.66,19.66,0,0,0-6.3587.6718q-.2608-.5553-.5055-1.1182a20.246,20.246,0,0,1,8.84-.527,16.7213,16.7213,0,0,1,4.5954,1.539c1.4746.7351,2.8644,1.628,4.325,2.39a11.7042,11.7042,0,0,0,4.8487,1.4874A13.7828,13.7828,0,0,0,32.2942,70.8c3.26-1.1623,6.24-3.01,9.5858-3.9483a13.0388,13.0388,0,0,1,4.9249-.5162,11.2387,11.2387,0,0,1,4.5471,1.657,25.5626,25.5626,0,0,0,4.0717,2.2892,8.2478,8.2478,0,0,0,5.0547.1051c3.3784-.9,6.319-2.9384,9.6641-3.9375a10.4931,10.4931,0,0,1,4.9593-.3606,12.921,12.921,0,0,1,4.0244,1.6946A26.8089,26.8089,0,0,0,83.0928,69.92a12.2991,12.2991,0,0,0,4.7553.7265,18.75,18.75,0,0,0,2.4512-.25" fill="#fbf4ea"/>
  </g>
</svg>
