<svg xmlns="http://www.w3.org/2000/svg" preserveAspectRatio="none" viewBox="0 0 259 213.91">
  <title>CardWave.inline</title>
  <g id="Layer_2" data-name="Layer 2">
    <g id="Blog_mobile" data-name="Blog mobile">
      <path d="M0,213.91H259V82.82c-12.5,5.37-29.02-5.52-47.65-25-.1-.1-.19-.2-.3-.3-.01-.01-.01-.01-.01-.02-2.31-2.4-4.63-4.95-6.99-7.6A55.0354,55.0354,0,0,0,198,43.24c-.02-.02-.05-.04-.08-.07q-.15-.15-.33-.3c-14.82-13.48-34.35-14.45-58.21-3.85a108.3133,108.3133,0,0,0-24.44,15.26c-.11.09-.22.19-.34.28a.6951.6951,0,0,1-.1.08c-.33.27-.65.55-.99.82-7.06,5.9-14.13,9.31-21.2,10.63a2.1506,2.1506,0,0,1-.25.04h-.01c-12.49,2.25-24.99-1.97-37.51-10.37-.16-.11-.31-.21-.47-.32-.01,0-.02-.01-.03-.02A144.3039,144.3039,0,0,1,35.83,40.38l-.23-.22c-.12-.11-.22-.22-.33-.33q-4.905-4.725-9.8-10.02C17.05,20.74,8.62,10.57.2,0Z" fill="#333"/>
    </g>
  </g>
</svg>
