<svg xmlns="http://www.w3.org/2000/svg" viewBox="0 0 216.9619 127" >
  <title>cloud</title>
  <path d="M213.0282,111.9337q-.25.4272-.5126.8468A30.7359,30.7359,0,0,1,186.3988,127H38.5183v-.02c-10.4313,0-23.6677-4.798-30.34-12.8252A36.1914,36.1914,0,0,1,1.16,82.219c2.9234-10.93,15.4828-25.7071,30.7778-25.7828a32.4248,32.4248,0,0,1,4.39-16.4108A33.181,33.181,0,0,1,67.2959,24.2563a40.858,40.858,0,0,1,15.2189,4.8389,81.0431,81.0431,0,0,1,11.1444-12.703C106.3213,4.79,123.924-2.25,140.8544.6537c17.4805,3.0049,32.16,16.3906,39.3311,32.6077a71.9244,71.9244,0,0,1,5.613,21.27,51.696,51.696,0,0,1,11.1035,4.91,40.76,40.76,0,0,1,18.0406,23.3279c2.7709,9.6774,3.1791,20.4854-1.9144,29.1645" fill="#e6e5e5"/>
</svg>
