<svg xmlns="http://www.w3.org/2000/svg" viewBox="0 0 191.8026 120.9073">
  <title>darkFish</title>
  <g>
    <path d="M183.1222,36.627c12.0619,17.6709,11.36,33.86-.9008,49.378a4.8562,4.8562,0,0,1-6.81.7934c-8.1329-6.3918-20.7343-19.8283-20.3831-23.1212a15.6693,15.6693,0,0,0,.1476-7.598c.7227-4.7387,15.5787-19.95,23.966-21.2025a4.0989,4.0989,0,0,1,3.98,1.75" fill="#bfdfdd"/>
    <path d="M155.1763,56.0793a15.629,15.629,0,0,1-3.15,13.42c-6.433,7.8581-16.3829,18.7392-25.0043,22.7548a77.1013,77.1013,0,0,1-25.89,6.7282v.0051a96.33,96.33,0,0,1-19.752-.3614c-3.5727-.4275-7.115-1.0382-10.6267-1.8016A146.1852,146.1852,0,0,1,47.9271,89.74a33.1731,33.1731,0,0,0,6.9318-5.1963C62.605,77.2152,66.6,66.5478,67.445,55.9261a44.9172,44.9172,0,0,0-2.26-18.9428A27.655,27.655,0,0,0,54.2278,22.7839a34.3933,34.3933,0,0,1,3.3285-1.023c3.5575-.88,7.1862-1.6892,10.8659-2.3717,12.4741-2.3055,25.4979-3.1554,37.8449-.5547a63.3063,63.3063,0,0,1,9.7157,2.8552,80.229,80.229,0,0,1,36.7353,28.8569,15.6959,15.6959,0,0,1,2.4582,5.5327m-41.8248,12.84c1.9187-1.9492,1.7253-5.0894,1.2368-7.7817-.86-4.7688-4.606-12.6167-6.1481-15.7258a1.2452,1.2452,0,0,0-1.8474-.4484c-.0051,0-.0051,0-.01.0051l-12.24,9.0541c-.0051.0051-.01.0051-.0153.01a2.0452,2.0452,0,0,0-.4275,2.83c.3613.5033.7227,1.0021,1.0942,1.5009.1578.2137.3155.4326.4784.6463.1832.25.3715.4988.56.7482.1374.1781.2748.3613.4173.54.0967.1272.1883.2437.285.3659.3664.4733.7379.9415,1.1146,1.4.1577.1934.3206.3868.4784.5751.1628.1934.3257.3919.4936.58.3614.4224.7278.8346,1.1045,1.2469.3613.3924.7328.7837,1.1094,1.1705.0967.0917.1934.1884.2851.2851.0966.0916.1933.1883.29.28.1934.1883.3868.3766.5853.56a13.5876,13.5876,0,0,0,5.2676,3.3692,6.0086,6.0086,0,0,0,5.8884-1.2113" fill="#3b474b"/>
    <path d="M114.5881,61.1377c.4886,2.6923.682,5.8325-1.2367,7.7817a6.0088,6.0088,0,0,1-5.8885,1.2113,13.5873,13.5873,0,0,1-5.2675-3.3692c-.1985-.1832-.3919-.3715-.5853-.56-.0967-.0911-.1934-.1883-.29-.28-.0916-.0967-.1883-.1929-.285-.2851-.3766-.3868-.7482-.7781-1.1095-1.1705-.3766-.4123-.7431-.8245-1.1044-1.2469-.168-.1883-.3308-.3868-.4937-.58-.1578-.1883-.3206-.3817-.4784-.5751-.3766-.4581-.7481-.9263-1.1146-1.4-.0967-.1222-.1883-.2387-.285-.3659-.1425-.1787-.28-.3619-.4173-.54-.1883-.2494-.3766-.4983-.56-.7482-.1629-.2137-.3207-.4326-.4784-.6463-.3716-.4988-.7329-.9976-1.0943-1.5009a2.0452,2.0452,0,0,1,.4275-2.83c.0051-.0051.01-.0051.0153-.01l12.24-9.0546c.0051-.0051.0051-.0051.01-.0051a1.2453,1.2453,0,0,1,1.8475.4484c1.5421,3.1091,5.2879,10.957,6.148,15.7258" fill="#152421"/>
    <path d="M105.702,4.676c3.2827,3.725,3.6033,10.2344.5649,14.1583-12.3469-2.6-25.3707-1.75-37.8449.5547,2.9417-3.9743,6.9573-9.2571,10.5555-12.5245C82.6724,3.52,87.1612.8738,92.0929.1714,97.0194-.5355,102.4091.94,105.702,4.676" fill="#a5d6d7"/>
    <path d="M101.1521,99.1811A12.3567,12.3567,0,0,1,96.45,120.4446c-5.8121,1.6388-12.1434-1.2672-16.2352-5.7052s-7.2728-12.179-9.4867-17.7972l.0254-.1175c3.5117.7634,7.054,1.3741,10.6267,1.8016a96.33,96.33,0,0,0,19.752.3614Z" fill="#a5d6d7"/>
    <path d="M65.1852,36.9834a44.9172,44.9172,0,0,1,2.26,18.9428C66.6,66.5478,62.6049,77.2153,54.8588,84.544A33.1731,33.1731,0,0,1,47.927,89.74c-3.71-1.4708-7.3746-3.0689-10.988-4.7535a60.34,60.34,0,0,1-13.7516-8.2907,26.99,26.99,0,0,1-8.8251-15.543c-2.5294-5.9954,20.6274-31.4373,39.8654-38.37a27.6582,27.6582,0,0,1,10.9575,14.2M44.6392,48.2819a3.768,3.768,0,1,0-3.3641,3.3641,3.77,3.77,0,0,0,3.3641-3.3641" fill="#152421"/>
    <path d="M40.5065,44.1444a3.7705,3.7705,0,1,1-3.3641,3.3692,3.77,3.77,0,0,1,3.3641-3.3692" fill="#bfdfdd"/>
    <g>
      <path d="M45.6887,31.0585a20.0058,20.0058,0,0,0-9.4058-15.1466A19.6032,19.6032,0,0,0,10.64,21.2481a1.5369,1.5369,0,0,0,.5477,2.0887,1.5606,1.5606,0,0,0,2.0886-.5476,16.8823,16.8823,0,0,1,13.4071-6.5506A16.1039,16.1039,0,0,1,39.586,23.0793a16.4777,16.4777,0,0,1,3.049,7.9792,1.5677,1.5677,0,0,0,1.5269,1.5268,1.5386,1.5386,0,0,0,1.5268-1.5268" fill="#152421"/>
      <path d="M15.2682,28.7538a7.6341,7.6341,0,1,0-7.6341,7.6341,7.6342,7.6342,0,0,0,7.6341-7.6341" fill="#bfdfdd"/>
    </g>
  </g>
</svg>
