<svg xmlns="http://www.w3.org/2000/svg" viewBox="0 -130 2265 1160" preserveAspectRatio="none" >
  <title>heroWave</title>
      <path id="wave" d="M2265,13.14v295H0v-295c44-16,92.4875-16.703,131.1812-5.82a207.45,207.45,0,0,1,51.3165,22.0305c59.22,35.6562,99.713,98.917,162.8264,127.082,97.56,43.53,208.6866-10.6467,301.44-63.6442C716.1,53.18,795.5222,12.717,872.0545,12.717c25.8647,0,51.4049,4.601,76.1193,15.4541,74.4678,32.6772,118.47,114.2231,192.7021,147.49,92.4284,41.4367,199.1606-3.8339,287.7551-52.9973C1503.6886,81.021,1585.0872,34.6,1668.4026,34.6a209.9134,209.9134,0,0,1,45.0935,4.8073c65.7675,14.3627,119.9151,61.1963,183.9428,82.0177C2010.9838,158.3494,2241,20.14,2265,13.14Z" fill="#487c85"/>
      <rect id="rect" y="266.1404" width="2265" height="954" fill="#487c85"/>
</svg>
