<svg xmlns="http://www.w3.org/2000/svg" viewBox="0 0 447.113 52.3889">
  <title>logoBlack</title>
  <g>
    <path d="M48.6166,49.755A1.9622,1.9622,0,0,1,46.7877,51.95c-1.317,0-1.9761-.8784-2.0488-2.2681L42.836,6.0731H42.69L26.5194,45.6574a2.4852,2.4852,0,0,1-2.1948,1.2437A2.5891,2.5891,0,0,1,21.91,44.9989L5.74,6.0731H5.6665L3.837,49.755c-.0727,1.39-.8045,2.1948-1.9749,2.1948a1.893,1.893,0,0,1-1.83-2.1221,4.1129,4.1129,0,0,1,0-1.0238L2.374,1.8289A2.707,2.707,0,0,1,5.008,0a3.0114,3.0114,0,0,1,3,2.2681L24.178,41.56h.4392L40.6412,1.6829A2.9476,2.9476,0,0,1,43.2752,0c1.7563,0,2.7807,1.171,2.9267,3.22l2.3414,44.9983a10.7961,10.7961,0,0,1,.0733,1.5369" fill="#333"/>
    <path d="M82.74,17.9541,71.8808,36.3934V50.3771a1.3464,1.3464,0,0,1-1.3831,1.4852,1.3739,1.3739,0,0,1-1.3831-1.4852V36.3934L58.358,18.1589a3.1131,3.1131,0,0,1-.5119-1.332,1.2638,1.2638,0,0,1,1.332-1.332,1.5213,1.5213,0,0,1,1.28.8195L70.4977,33.5761,80.5369,16.4172a1.5476,1.5476,0,0,1,1.3321-.9223,1.28,1.28,0,0,1,1.28,1.332,2.4646,2.4646,0,0,1-.41,1.1272" fill="#333"/>
    <path d="M124.2774,32.7064H116.814V49.9008a1.8864,1.8864,0,0,1-1.9022,2.05,1.9419,1.9419,0,0,1-1.9756-2.05V2.8537A2.4036,2.4036,0,0,1,115.57.2924h10.9753c10.8292,0,16.6825,5.6346,16.6825,16.0241,0,9.22-6.0732,16.39-18.9507,16.39m2.1949-28.6823H116.814V28.9014h5.8532c6.5857,0,9.5123-.7312,11.5611-1.9023,3.22-2.1215,5.0488-5.9265,5.0488-10.536,0-9-5.2681-12.439-12.8048-12.439" fill="#333"/>
    <path d="M172.8785,49.4544a2.8907,2.8907,0,0,1,.3076,1.025,1.2945,1.2945,0,0,1-1.28,1.3825,1.6389,1.6389,0,0,1-1.4859-1.0755l-7.1192-14.1879c-.7174.1021-1.3831.1538-2.1005.2049h-5.7877V50.4283a1.3312,1.3312,0,0,1-1.3831,1.4336,1.3591,1.3591,0,0,1-1.3831-1.4336V18.0053c0-1.7418.6152-2.3048,2.3048-2.3048h7.12c7.4778,0,11.2174,3.7384,11.2174,10.1414,0,5.122-2.869,8.554-7.3764,10.0909Zm-6.7611-16.1857a7.4679,7.4679,0,0,0,4.3536-7.1709c0-5.736-3.7389-7.7855-8.3485-7.7855h-6.71v15.93h4.7117a14.791,14.791,0,0,0,5.9932-.9733" fill="#333"/>
    <path d="M194.1357,52.1694c-8.8609,0-13.676-6.3-13.676-18.3366,0-12.3446,5.1221-18.6448,13.7271-18.6448,8.81,0,13.6243,6.2492,13.6243,18.3372,0,12.1391-5.0193,18.6442-13.6754,18.6442M193.88,17.7487a10.4443,10.4443,0,0,0-5.8394,1.69c-2.9705,2.2537-4.7634,7.12-4.7634,14.0353,0,10.756,3.739,16.134,11.1658,16.134a9.9339,9.9339,0,0,0,6.0953-1.895c2.7152-2.2026,4.4564-6.8638,4.4564-13.88,0-10.6034-3.6879-16.0841-11.1147-16.0841" fill="#333"/>
    <path d="M238.5357,52.3889a11.8813,11.8813,0,0,1-5.4146-1.0977,2.2553,2.2553,0,0,1-1.317-1.9022,1.6743,1.6743,0,0,1,1.7562-1.6829,15.6936,15.6936,0,0,1,2.1215.4392,12.0223,12.0223,0,0,0,4.9754.2926,7.5814,7.5814,0,0,0,4.0983-2.1215c1.0971-1.2443,2.4141-3.8051,2.4141-8.122V2.0487A1.9843,1.9843,0,0,1,249.1451.0005a1.9413,1.9413,0,0,1,1.9755,2.0482V38.56c0,8.7811-5.1947,13.8292-12.5849,13.8292" fill="#333"/>
    <path d="M275.9854,52.1694c-8.861,0-13.676-6.3-13.676-18.3366,0-12.3446,5.122-18.6448,13.7271-18.6448,8.81,0,13.6243,6.2492,13.6243,18.3372,0,12.1391-5.0193,18.6442-13.6754,18.6442m-.256-34.4207a10.4445,10.4445,0,0,0-5.8394,1.69c-2.97,2.2537-4.7633,7.12-4.7633,14.0353,0,10.756,3.7389,16.134,11.1657,16.134a9.934,9.934,0,0,0,6.0954-1.895c2.7151-2.2026,4.4563-6.8638,4.4563-13.88,0-10.6034-3.6878-16.0841-11.1147-16.0841" fill="#333"/>
    <path d="M310.3544,52.17c-7.4268,0-11.8831-4.5585-11.8831-13.3173V16.93a1.3837,1.3837,0,1,1,2.7656,0V39.006c0,6.9149,3.227,10.6022,9.3223,10.6022a9.0373,9.0373,0,0,0,5.9416-1.7923c1.7418-1.4858,3.0739-3.9444,3.0739-8.81V16.93a1.3588,1.3588,0,0,1,1.3825-1.4347A1.39,1.39,0,0,1,322.34,16.93V39.1081c0,8.4-4.4564,13.0614-11.9859,13.0614" fill="#333"/>
    <path d="M353.1234,49.4544a2.8907,2.8907,0,0,1,.3076,1.025,1.2945,1.2945,0,0,1-1.28,1.3825,1.639,1.639,0,0,1-1.4859-1.0755l-7.1191-14.1879c-.7174.1021-1.3832.1538-2.1005.2049h-5.7878V50.4283a1.3311,1.3311,0,0,1-1.3831,1.4336,1.3592,1.3592,0,0,1-1.3831-1.4336V18.0053c0-1.7418.6153-2.3048,2.3048-2.3048h7.12c7.4779,0,11.2174,3.7384,11.2174,10.1414,0,5.122-2.869,8.554-7.3763,10.0909Zm-6.761-16.1857a7.4678,7.4678,0,0,0,4.3535-7.1709c0-5.736-3.7389-7.7855-8.3485-7.7855h-6.71v15.93h4.7117a14.7915,14.7915,0,0,0,5.9933-.9733" fill="#333"/>
    <path d="M385.2905,51.862a2.1416,2.1416,0,0,1-1.9461-1.28L365.212,20.2075h-.1027v30.22a1.2824,1.2824,0,0,1-1.28,1.4342,1.32,1.32,0,0,1-1.332-1.4342V16.7761a1.5415,1.5415,0,0,1,1.6907-1.2809,2.1212,2.1212,0,0,1,1.895,1.23L384.215,47.15h.1021v-30.22a1.2813,1.2813,0,0,1,1.281-1.4342,1.3492,1.3492,0,0,1,1.332,1.4342v33.806a1.6079,1.6079,0,0,1-1.64,1.1266" fill="#333"/>
    <path d="M415.2026,51.6572h-15.008c-1.5874,0-2.458-.82-2.458-2.2026V18.005a2.15,2.15,0,0,1,2.458-2.3048H414.64a1.3327,1.3327,0,1,1,0,2.6635H400.5022v13.983h13.4711a1.2807,1.2807,0,0,1,1.3321,1.2809,1.3213,1.3213,0,0,1-1.3321,1.3315H400.5022V48.9938h14.7a1.3053,1.3053,0,0,1,1.3831,1.3314,1.3668,1.3668,0,0,1-1.3831,1.332" fill="#333"/>
    <path d="M446.7033,17.9541,435.8445,36.3934V50.3771a1.3464,1.3464,0,0,1-1.3831,1.4852,1.3739,1.3739,0,0,1-1.3831-1.4852V36.3934l-10.756-18.2345a3.0993,3.0993,0,0,1-.5125-1.332,1.264,1.264,0,0,1,1.3315-1.332,1.5215,1.5215,0,0,1,1.2809.8195l10.0392,17.2617,10.0392-17.1589a1.5476,1.5476,0,0,1,1.332-.9223,1.28,1.28,0,0,1,1.28,1.332,2.4646,2.4646,0,0,1-.41,1.1272" fill="#333"/>
  </g>
</svg>
