<svg xmlns="http://www.w3.org/2000/svg" viewBox="0 0 447.3964 52.4209">
  <title>logoWhite</title>
  <g>
    <path d="M48.6474,49.7859a1.9644,1.9644,0,0,1-1.8313,2.1956c-1.3164,0-1.9771-.8792-2.0474-2.2684L42.8644,6.0771h-.1457L26.5355,45.6861A2.4855,2.4855,0,0,1,24.34,46.93a2.5882,2.5882,0,0,1-2.4167-1.9042L5.7425,6.0771H5.67L3.8408,49.7859c-.0729,1.3918-.8064,2.1956-1.9771,2.1956A1.8952,1.8952,0,0,1,.0324,49.8588a4.1465,4.1465,0,0,1,0-1.025L2.3762,1.8291A2.7086,2.7086,0,0,1,5.0114,0,3.0153,3.0153,0,0,1,8.0135,2.2687L24.1942,41.5863h.4371L40.6663,1.6834A2.949,2.949,0,0,1,43.3041,0c1.756,0,2.7809,1.1707,2.9266,3.2206l2.3438,45.0277a10.8576,10.8576,0,0,1,.0729,1.5374" fill="#fbf4ea"/>
    <path d="M82.792,17.9648,71.9269,36.4166V50.4092a1.3468,1.3468,0,0,1-1.3841,1.4847,1.3739,1.3739,0,0,1-1.3842-1.4847V36.4166L58.3965,18.1708a3.1221,3.1221,0,0,1-.515-1.3339,1.2651,1.2651,0,0,1,1.334-1.3314,1.5217,1.5217,0,0,1,1.2812.8189L70.5428,33.5979l10.046-17.1705a1.5476,1.5476,0,0,1,1.3315-.9219,1.28,1.28,0,0,1,1.2812,1.3314,2.4455,2.4455,0,0,1-.4095,1.1279" fill="#fbf4ea"/>
    <path d="M124.3567,32.7252h-7.4686V49.9309a1.8872,1.8872,0,0,1-1.9017,2.0524,1.945,1.945,0,0,1-1.98-2.0524V2.8558A2.4085,2.4085,0,0,1,115.6445.2909h10.9806c10.8374,0,16.6932,5.64,16.6932,16.035,0,9.2246-6.0769,16.3993-18.9616,16.3993m2.1956-28.6987h-9.6642V28.9193h5.8558c6.5918,0,9.5185-.731,11.5709-1.9042,3.2206-2.1228,5.0519-5.9287,5.0519-10.541,0-9.006-5.273-12.4476-12.8144-12.4476" fill="#fbf4ea"/>
    <path d="M172.988,49.4847a2.9165,2.9165,0,0,1,.309,1.025,1.2957,1.2957,0,0,1-1.2812,1.3842,1.6387,1.6387,0,0,1-1.4872-1.0752L163.4042,36.62c-.7185.103-1.3842.1558-2.1.206h-5.793V50.4594a1.3311,1.3311,0,0,1-1.3842,1.4345,1.36,1.36,0,0,1-1.3841-1.4345V18.0151c0-1.7409.6154-2.3062,2.3061-2.3062h7.127c7.4811,0,11.2217,3.7406,11.2217,10.1491,0,5.1248-2.8689,8.5589-7.3807,10.0963Zm-6.7652-16.1958a7.4734,7.4734,0,0,0,4.3561-7.1747c0-5.74-3.7406-7.7926-8.3529-7.7926h-6.715v15.942h4.7153a14.8039,14.8039,0,0,0,5.9965-.9747" fill="#fbf4ea"/>
    <path d="M194.26,52.2c-8.8678,0-13.6861-6.303-13.6861-18.3462,0-12.3522,5.1247-18.6577,13.7364-18.6577,8.8151,0,13.6334,6.2527,13.6334,18.3487,0,12.1487-5.0218,18.6552-13.6837,18.6552m-.2562-34.4415a10.4576,10.4576,0,0,0-5.8432,1.6907c-2.9719,2.2559-4.7681,7.1269-4.7681,14.0454,0,10.762,3.7431,16.143,11.174,16.143a9.95,9.95,0,0,0,6.0995-1.8941c2.7156-2.2057,4.4591-6.8682,4.4591-13.89,0-10.6113-3.69-16.0953-11.1213-16.0953" fill="#fbf4ea"/>
    <path d="M238.6874,52.4209a11.9181,11.9181,0,0,1-5.4187-1.0978,2.2571,2.2571,0,0,1-1.3164-1.9042,1.6733,1.6733,0,0,1,1.756-1.6831,15.45,15.45,0,0,1,2.1228.44,11.9954,11.9954,0,0,0,4.979.2914,7.6,7.6,0,0,0,4.1024-2.12c1.0978-1.2461,2.4141-3.8085,2.4141-8.1293V2.05A1.9852,1.9852,0,0,1,249.3037,0a1.9421,1.9421,0,0,1,1.977,2.05V38.584c0,8.785-5.1976,13.8369-12.5933,13.8369" fill="#fbf4ea"/>
    <path d="M276.1608,52.2c-8.8679,0-13.6836-6.303-13.6836-18.3462,0-12.3522,5.1247-18.6577,13.7338-18.6577,8.8177,0,13.6334,6.2527,13.6334,18.3487,0,12.1487-5.0217,18.6552-13.6836,18.6552m-.2562-34.4415a10.4641,10.4641,0,0,0-5.8433,1.6907c-2.9719,2.2559-4.7655,7.1269-4.7655,14.0454,0,10.762,3.7406,16.143,11.1715,16.143a9.95,9.95,0,0,0,6.0995-1.8941c2.7181-2.2057,4.459-6.8682,4.459-13.89,0-10.6113-3.69-16.0953-11.1212-16.0953" fill="#fbf4ea"/>
    <path d="M310.5521,52.2014c-7.431,0-11.89-4.56-11.89-13.3245V16.9384a1.3838,1.3838,0,1,1,2.7658,0V39.03c0,6.9184,3.2282,10.6088,9.33,10.6088a9.0379,9.0379,0,0,0,5.9438-1.7937c1.7434-1.4872,3.0749-3.9466,3.0749-8.8151V16.9384a1.3594,1.3594,0,0,1,1.3842-1.4344,1.3905,1.3905,0,0,1,1.3841,1.4344V39.1332c0,8.4056-4.459,13.0682-11.9929,13.0682" fill="#fbf4ea"/>
    <path d="M353.3472,49.4847a2.9186,2.9186,0,0,1,.309,1.025,1.2957,1.2957,0,0,1-1.2812,1.3842,1.6386,1.6386,0,0,1-1.4872-1.0752L343.7633,36.62c-.7184.103-1.3841.1558-2.1.206H335.87V50.4594a1.3311,1.3311,0,0,1-1.3842,1.4345,1.36,1.36,0,0,1-1.3842-1.4345V18.0151c0-1.7409.6155-2.3062,2.3061-2.3062h7.127c7.4812,0,11.2217,3.7406,11.2217,10.1491,0,5.1248-2.8688,8.5589-7.3806,10.0963ZM346.582,33.2889a7.4733,7.4733,0,0,0,4.356-7.1747c0-5.74-3.7406-7.7926-8.3528-7.7926H335.87v15.942h4.7153a14.8046,14.8046,0,0,0,5.9965-.9747" fill="#fbf4ea"/>
    <path d="M385.5348,51.8946a2.1434,2.1434,0,0,1-1.9469-1.2812L365.4427,20.219h-.103V50.46a1.2823,1.2823,0,0,1-1.2787,1.4344,1.3227,1.3227,0,0,1-1.334-1.4344V16.7849a1.5419,1.5419,0,0,1,1.6907-1.2812,2.1228,2.1228,0,0,1,1.8967,1.231L384.46,47.1793h.1V16.9381a1.2831,1.2831,0,0,1,1.2837-1.4344,1.3489,1.3489,0,0,1,1.3315,1.4344V50.7667a1.607,1.607,0,0,1-1.64,1.1279" fill="#fbf4ea"/>
    <path d="M415.466,51.69H400.4484c-1.5877,0-2.4594-.8215-2.4594-2.2032v-31.47a2.1531,2.1531,0,0,1,2.4594-2.3087h14.4549a1.3337,1.3337,0,1,1,0,2.6654H400.7574V32.3665h13.4777a1.2814,1.2814,0,0,1,1.3339,1.2812,1.3237,1.3237,0,0,1-1.3339,1.3339H400.7574V49.0245H415.466a1.306,1.306,0,0,1,1.3842,1.3314,1.3668,1.3668,0,0,1-1.3842,1.334" fill="#fbf4ea"/>
    <path d="M446.9869,17.9648,436.1218,36.4166V50.4092a1.3468,1.3468,0,0,1-1.3841,1.4847,1.3739,1.3739,0,0,1-1.3842-1.4847V36.4166L422.5914,18.1708a3.1218,3.1218,0,0,1-.5149-1.3339,1.265,1.265,0,0,1,1.3339-1.3314,1.5217,1.5217,0,0,1,1.2812.8189l10.0461,17.2735,10.046-17.1705a1.5476,1.5476,0,0,1,1.3315-.9219,1.28,1.28,0,0,1,1.2812,1.3314,2.4455,2.4455,0,0,1-.41,1.1279" fill="#fbf4ea"/>
  </g>
</svg>
