<svg xmlns="http://www.w3.org/2000/svg" viewBox="0 0 160.366 109.1784">
  <title>orangeFish</title>
  <g>
    <g>
      <path d="M23.2546,29.725c-9.7888,14.34-9.219,27.4787.7311,40.0721a3.9409,3.9409,0,0,0,5.5262.6445c6.6-5.1877,16.8266-16.0918,16.5419-18.7642a12.725,12.725,0,0,1-.12-6.1661c-.586-3.8457-12.6428-16.1913-19.4492-17.207a3.3269,3.3269,0,0,0-3.23,1.4207" fill="#d57d0a"/>
      <path d="M45.9338,45.5111a12.6874,12.6874,0,0,0,2.5567,10.8917c1.1319,1.3793,2.3914,2.8746,3.75,4.4027a70.3656,70.3656,0,0,0,.1939-13.2582,69.3317,69.3317,0,0,0-1.6229-10.3379q-1.5057,1.8519-2.8829,3.812a12.7331,12.7331,0,0,0-1.9952,4.49" fill="#ff980d"/>
      <path d="M50.8118,37.2091a69.3645,69.3645,0,0,1,1.623,10.338,70.37,70.37,0,0,1-.1935,13.2586c1.8749,2.11,3.9235,4.2829,6.0505,6.3066a70.8677,70.8677,0,0,0,1.165-19.5652,70.56,70.56,0,0,0-3.2551-16.1908,65.7009,65.7009,0,0,0-5.39,5.8528" fill="#fff"/>
      <path d="M56.2018,31.3562A70.5587,70.5587,0,0,1,59.4564,47.547a70.8489,70.8489,0,0,1-1.1645,19.5653,42.516,42.516,0,0,0,10.4913,7.7568,57.0189,57.0189,0,0,0,7.2192,2.7838,70.7194,70.7194,0,0,1,1.7884-60.0671.2155.2155,0,0,0-.0493.017,64.5711,64.5711,0,0,0-21.54,13.7534" fill="#ff980d"/>
      <path d="M70.3976,43.83a71.3551,71.3551,0,0,0,5.605,33.823,62.6685,62.6685,0,0,0,7.8766,1.9A70.7677,70.7677,0,0,1,86.072,15.1945c-.1483.0286-.2971.0581-.4455.0908a51.1914,51.1914,0,0,0-7.8356,2.3006A71.1742,71.1742,0,0,0,70.3976,43.83" fill="#fff"/>
      <path d="M77.4192,43.83a71.3232,71.3232,0,0,0,6.46,35.7229q2.9369.52,5.9142.7767v.0042a78.2121,78.2121,0,0,0,16.03-.293q2.6023-.31,5.1794-.7767a70.75,70.75,0,0,1,2.3208-64.0446c-9.0407-1.4415-18.3546-1.8215-27.2515-.0249A71.4058,71.4058,0,0,0,77.4192,43.83m2.4577,12.1019c-1.5575-1.5819-1.4-4.13-1.0038-6.3154.6979-3.87,3.7379-10.2389,4.9891-12.7624a1.0111,1.0111,0,0,1,1.4995-.3635l.0083.0041,9.9335,7.3478c.0041.0046.0083.0046.0124.0083a1.66,1.66,0,0,1,.3469,2.2964c-.293.4086-.5864.8136-.8882,1.2185-.1276.1732-.2561.351-.3883.5247-.1484.2022-.3013.4049-.4538.6067-.1115.1451-.2234.2935-.339.4381-.0788.1032-.153.1981-.2313.2976-.2971.3837-.5989.7638-.9043,1.1356-.1285.1571-.26.3137-.3883.4671-.1323.1566-.2645.3179-.4008.47-.293.3432-.5906.6777-.8965,1.0121-.293.3184-.5947.6362-.9.95-.0787.0747-.157.153-.2312.2318-.0788.0741-.1571.1524-.2354.2271-.1571.1525-.3142.3054-.4754.4537a11.0183,11.0183,0,0,1-4.2746,2.7346,4.8762,4.8762,0,0,1-4.7786-.9831" fill="#ff980d"/>
      <path d="M78.8732,49.6162c-.3966,2.185-.5537,4.7335,1.0038,6.3154a4.876,4.876,0,0,0,4.7786.9831A11.02,11.02,0,0,0,88.93,54.18c.1612-.1483.3179-.3012.475-.4537.0787-.0747.157-.153.2358-.2271.0742-.0788.1525-.1571.2313-.2318.3054-.3137.6067-.6315.9-.95.3059-.3344.6035-.6689.896-1.0121.1364-.1525.2686-.3137.4013-.47.1281-.1534.26-.31.3879-.4671.3054-.3718.6076-.7519.9047-1.1356.0784-.0995.1525-.1944.2313-.2976.1156-.1446.2271-.293.3386-.4381.1529-.2018.3059-.4045.4542-.6067.1322-.1737.26-.3515.3884-.5247.3017-.4049.5952-.81.8877-1.2185a1.6585,1.6585,0,0,0-.3469-2.2964c-.0037-.0037-.0078-.0037-.012-.0083L85.37,36.4944l-.0083-.0041a1.011,1.011,0,0,0-1.4995.3635c-1.2516,2.5235-4.2911,8.8928-4.9891,12.7624" fill="#4f2700"/>
      <path d="M86.0722,15.1944c8.8965-1.7966,18.21-1.4165,27.2516.0249,1.0079.1571,2.0159.33,3.0151.5164a75.9023,75.9023,0,0,0-8.5663-10.1652A20.569,20.569,0,0,0,97.1293.1392,12.469,12.469,0,0,0,86.0846,3.7951a9.5509,9.5509,0,0,0-.4583,11.49c.1483-.0327.2975-.0622.4459-.0908" fill="#d57d0a"/>
      <path d="M111.0029,79.264q-2.5774.4643-5.1793.7767a78.1858,78.1858,0,0,1-16.03.2925l-.0161.1571a10.0277,10.0277,0,0,0,3.8162,17.2563c4.7164,1.3305,9.8552-1.0282,13.1758-4.63s5.9021-9.8842,7.6983-14.4435l-.02-.0949c-1.1448.2474-2.2928.4791-3.445.6855" fill="#d57d0a"/>
      <path d="M104.6791,43.83a71.3689,71.3689,0,0,0,6.3241,35.434c1.1521-.2064,2.3-.4381,3.4444-.6855q1.4864-.3227,2.9612-.69a70.74,70.74,0,0,1,2.2923-61.4837q-1.6729-.3531-3.362-.6689c-.9991-.1861-2.0076-.36-3.0151-.5164A71.28,71.28,0,0,0,104.6791,43.83" fill="#fff"/>
      <path d="M111.7007,43.83a71.3379,71.3379,0,0,0,5.7082,34.0584,122.1629,122.1629,0,0,0,15.5629-5.0595,26.94,26.94,0,0,1-5.6252-4.217c-6.2868-5.9478-9.5291-14.6047-10.2145-23.2249a36.4494,36.4494,0,0,1,1.8339-15.3726,22.443,22.443,0,0,1,8.8924-11.5238,27.9445,27.9445,0,0,0-2.701-.8306q-2.6949-.6681-5.4562-1.2553A71.399,71.399,0,0,0,111.7007,43.83" fill="#ff980d"/>
      <path d="M118.9664,30.0144A36.45,36.45,0,0,0,117.132,45.387c.6854,8.62,3.9281,17.2771,10.2145,23.2249a26.94,26.94,0,0,0,5.6252,4.217c3.011-1.1941,5.9846-2.4909,8.9173-3.8577a48.9643,48.9643,0,0,0,11.16-6.7281,21.9062,21.9062,0,0,0,7.162-12.6142c2.0528-4.8656-16.74-25.513-32.353-31.1383a22.44,22.44,0,0,0-8.8919,11.5238M135.64,39.1831a3.058,3.058,0,1,1,2.73,2.73,3.06,3.06,0,0,1-2.73-2.73" fill="#d57d0a"/>
      <path d="M138.9938,35.8253a3.06,3.06,0,1,0,2.73,2.7346,3.06,3.06,0,0,0-2.73-2.7346" fill="#fff"/>
    </g>
    <g>
      <path d="M1.6208,93.4436c-2.2523,3.2989-2.121,6.3218.1681,9.219a.9073.9073,0,0,0,1.2715.1479c1.5179-1.1936,3.871-3.702,3.8051-4.3165a2.9232,2.9232,0,0,1-.0271-1.4189c-.135-.8845-2.9087-3.7245-4.4746-3.9581a.7652.7652,0,0,0-.743.3266" fill="#d57d0a"/>
      <path d="M6.8382,97.075a2.92,2.92,0,0,0,.5878,2.5056c.2608.3174.55.6615.8629,1.0135a16.15,16.15,0,0,0,.0447-3.05A15.9492,15.9492,0,0,0,7.96,95.1651q-.3462.4271-.6634.8775a2.94,2.94,0,0,0-.4588,1.0324" fill="#ff980d"/>
      <path d="M7.96,95.1653a15.9455,15.9455,0,0,1,.3736,2.3784,16.2254,16.2254,0,0,1-.0447,3.05c.4312.4855.9025.9853,1.3917,1.4511a16.2911,16.2911,0,0,0,.2681-4.5013,16.1991,16.1991,0,0,0-.749-3.725,15.2471,15.2471,0,0,0-1.24,1.3466" fill="#fff"/>
      <path d="M9.2,93.8188a16.2417,16.2417,0,0,1,.7491,3.725,16.3056,16.3056,0,0,1-.2681,4.5008,9.7891,9.7891,0,0,0,2.4134,1.7842,13.1161,13.1161,0,0,0,1.6612.6408,16.271,16.271,0,0,1,.411-13.8183l-.0111.0036A14.8587,14.8587,0,0,0,9.2,93.8188" fill="#ff980d"/>
      <path d="M12.4662,96.6886a16.4125,16.4125,0,0,0,1.2894,7.7812,14.4145,14.4145,0,0,0,1.8114.4367,16.2816,16.2816,0,0,1,.5049-14.8056c-.0341.0069-.0682.0134-.1028.0208a11.721,11.721,0,0,0-1.8026.53,16.375,16.375,0,0,0-1.7,6.0372" fill="#fff"/>
      <path d="M14.081,96.6886a16.4155,16.4155,0,0,0,1.4861,8.2179q.6765.12,1.3609.1787v.001a18.01,18.01,0,0,0,3.6877-.0673q.5983-.0711,1.1917-.1792a16.2754,16.2754,0,0,1,.5339-14.7332,17.7282,17.7282,0,0,0-6.2693-.0056,16.43,16.43,0,0,0-1.991,6.5877m.5657,2.7838a1.6355,1.6355,0,0,1-.2308-1.4525,14.3026,14.3026,0,0,1,1.1476-2.9359A.232.232,0,0,1,15.9085,95l.0018.0009,2.2854,1.69.0028.0019a.38.38,0,0,1,.152.3049.3842.3842,0,0,1-.0723.2235c-.0677.0939-.135.1874-.2045.2805-.0291.04-.0585.08-.0889.12-.0341.047-.07.0936-.1046.14-.0258.0327-.0516.0672-.0779.1-.0179.024-.0354.0456-.0534.0682-.0682.0889-.1373.176-.2082.2617-.0291.0363-.06.0723-.0889.1073-.0309.0359-.0609.0732-.0922.1082-.0677.0788-.1359.1558-.2064.2327-.0672.0732-.1368.1465-.2073.2188-.0179.0171-.0359.035-.0529.053s-.036.035-.0544.052c-.0359.036-.0719.071-.1092.1051a2.54,2.54,0,0,1-.9831.6288,1.1216,1.1216,0,0,1-1.1-.2262" fill="#ff980d"/>
      <path d="M14.4159,98.02a1.6353,1.6353,0,0,0,.2308,1.4525,1.1217,1.1217,0,0,0,1.1.2266,2.5449,2.5449,0,0,0,.9831-.6293c.0373-.0341.0733-.0691.1092-.1045.0184-.0171.0364-.035.0544-.0526s.035-.0359.0529-.0529c.07-.0724.14-.1451.2073-.2184.0705-.0769.1387-.1539.2064-.2326.0313-.035.0613-.0724.0922-.1087.029-.0351.06-.071.0889-.1074.0709-.0857.14-.1727.2082-.2612.018-.0226.0355-.0447.0534-.0686.0263-.0332.0521-.0673.0779-.1.035-.0465.0705-.093.1046-.14.03-.04.06-.0811.0889-.1207.07-.0931.1368-.1861.2045-.28a.3865.3865,0,0,0,.0723-.2239.38.38,0,0,0-.152-.305l-.0028-.0018L15.91,95.001,15.9085,95a.2326.2326,0,0,0-.345.0838A14.3117,14.3117,0,0,0,14.4159,98.02" fill="#4f2700"/>
      <path d="M16.0719,90.101a17.7282,17.7282,0,0,1,6.2693.0056c.2317.0363.4634.076.6933.1188a17.4451,17.4451,0,0,0-1.97-2.3384,4.7345,4.7345,0,0,0-2.4489-1.25,2.87,2.87,0,0,0-2.5406.8412,2.1978,2.1978,0,0,0-.1055,2.6434c.0345-.0079.0686-.0139.1027-.0208" fill="#d57d0a"/>
      <path d="M21.8074,104.84q-.593.1071-1.1918.1792a17.974,17.974,0,0,1-3.6877.0668l-.0037.0364a2.3065,2.3065,0,0,0,.8781,3.97,3.1423,3.1423,0,0,0,3.0312-1.0651,11.5148,11.5148,0,0,0,1.7708-3.3228l-.0046-.0217q-.3952.0858-.7923.1576" fill="#d57d0a"/>
      <path d="M20.3525,96.6886a16.42,16.42,0,0,0,1.4548,8.1511c.2649-.047.5293-.1.7923-.1571q.3422-.0745.6809-.1589A16.2776,16.2776,0,0,1,23.8084,90.38c-.257-.0543-.5141-.1059-.7739-.1543-.23-.0428-.4616-.0824-.6933-.1188a16.4017,16.4017,0,0,0-1.9887,6.5821" fill="#fff"/>
      <path d="M21.968,96.6886a16.4025,16.4025,0,0,0,1.3129,7.8351,28.0832,28.0832,0,0,0,3.58-1.1641,6.2132,6.2132,0,0,1-1.2945-.97,8.2265,8.2265,0,0,1-2.3494-5.3429,8.3784,8.3784,0,0,1,.4219-3.5361,5.1629,5.1629,0,0,1,2.0454-2.6512,6.3762,6.3762,0,0,0-.621-.1907c-.4137-.1027-.8329-.2-1.2553-.2889a16.4147,16.4147,0,0,0-1.84,6.309" fill="#ff980d"/>
      <path d="M23.6394,93.51a8.3794,8.3794,0,0,0-.422,3.5366,8.2255,8.2255,0,0,0,2.3494,5.3424,6.1842,6.1842,0,0,0,1.2945.9707c.6924-.275,1.3765-.5731,2.0514-.8877a11.2809,11.2809,0,0,0,2.5673-1.5474,5.0456,5.0456,0,0,0,1.6479-2.9023c.4721-1.1194-3.8513-5.8689-7.4431-7.1634A5.162,5.162,0,0,0,23.6394,93.51M27.4749,95.62a.7035.7035,0,1,1,.6279.6279.704.704,0,0,1-.6279-.6279" fill="#d57d0a"/>
      <path d="M28.2465,94.8472a.7039.7039,0,1,0,.6279.6289.704.704,0,0,0-.6279-.6289" fill="#fff"/>
    </g>
  </g>
</svg>
