<svg xmlns="http://www.w3.org/2000/svg" viewBox="0 0 111.7578 76.0698">
  <title>redFish</title>
  <g>
    <path d="M106.2965,23.0442c7.5888,11.1178,7.1469,21.3032-.5668,31.0665a3.0553,3.0553,0,0,1-4.2843.4992C96.3285,50.5885,88.4,42.1347,88.6212,40.063a9.8583,9.8583,0,0,0,.0929-4.78c.4546-2.9814,9.8014-12.552,15.0784-13.34a2.5788,2.5788,0,0,1,2.504,1.1012" fill="#353431"/>
    <path d="M88.7141,35.2827a9.8322,9.8322,0,0,1-1.9821,8.4435C82.6847,48.67,76.4247,55.5161,71,58.0426a48.5108,48.5108,0,0,1-16.2888,4.2331v.0032a60.61,60.61,0,0,1-12.4271-.2274c-2.2479-.269-4.4765-.6532-6.6859-1.1335a91.9756,91.9756,0,0,1-14.3612-4.4573,20.8677,20.8677,0,0,0,4.3612-3.2692c4.8735-4.611,7.3871-11.3225,7.9187-18.0051a28.26,28.26,0,0,0-1.4217-11.918,17.3994,17.3994,0,0,0-6.894-8.9337,21.6623,21.6623,0,0,1,2.0941-.6437c2.2382-.5539,4.5213-1.0627,6.8364-1.4921,7.8482-1.45,16.0422-1.9853,23.81-.349a39.82,39.82,0,0,1,6.1127,1.7963A50.4765,50.4765,0,0,1,87.1675,31.8018a9.8762,9.8762,0,0,1,1.5466,3.4809M62.4,43.3612c1.2072-1.2264,1.0855-3.2021.7781-4.8959-.5411-3-2.8978-7.9379-3.8681-9.894a.7834.7834,0,0,0-1.1623-.2821l-.0064.0032L50.44,33.9888l-.01.0064a1.2867,1.2867,0,0,0-.269,1.7807c.2273.3166.4547.63.6884.9442.0993.1345.1986.2722.301.4067.1153.1572.2338.3138.3523.4707.0864.1121.1729.2274.2625.34.0609.08.1185.1534.1793.23.2306.2978.4643.5923.7013.8805.0992.1217.2017.2434.301.3619.1024.1216.2049.2465.3106.365.2273.2658.4579.5251.6948.7845.2274.2469.4611.4931.6981.7365.0608.0576.1216.1184.1793.1793.0608.0576.1217.1185.1825.1761.1217.1185.2434.2369.3682.3522a8.5488,8.5488,0,0,0,3.3141,2.12A3.7806,3.7806,0,0,0,62.4,43.3612" fill="#cd3b2c"/>
    <path d="M63.1777,38.4653c.3074,1.6938.4291,3.6695-.7781,4.8959a3.7806,3.7806,0,0,1-3.7048.7621,8.5488,8.5488,0,0,1-3.3141-2.12c-.1249-.1153-.2466-.2337-.3682-.3522-.0609-.0573-.1217-.1185-.1825-.1761-.0577-.0609-.1185-.1214-.1794-.1793-.2369-.2434-.4707-.49-.698-.7365-.237-.2594-.4675-.5187-.6949-.7845-.1056-.1185-.2081-.2434-.3106-.365-.0992-.1185-.2017-.24-.3009-.3619-.237-.2882-.4707-.5827-.7013-.8805-.0608-.0769-.1185-.15-.1793-.23-.09-.1123-.1761-.2276-.2626-.34-.1184-.1569-.2369-.3135-.3522-.4707-.1025-.1345-.2017-.2722-.301-.4067-.2337-.3138-.4611-.6276-.6884-.9442a1.2868,1.2868,0,0,1,.2689-1.7807l.01-.0061,7.7009-5.6967.0064-.0032a.7834.7834,0,0,1,1.1623.2821c.97,1.9561,3.3269,6.8936,3.8681,9.894" fill="#353431"/>
    <path d="M57.5869,2.942a7.404,7.404,0,0,1,.3555,8.9077c-7.7682-1.6359-15.9622-1.1011-23.81.3491a58.869,58.869,0,0,1,6.641-7.88A15.94,15.94,0,0,1,49.0247.1078,9.6665,9.6665,0,0,1,57.5869,2.942" fill="#fbf4ea"/>
    <path d="M54.7243,62.4005a7.7744,7.7744,0,0,1-2.9587,13.3782c-3.6567,1.031-7.64-.7973-10.2145-3.59s-4.5757-7.6625-5.9686-11.1972l.016-.074c2.2094.48,4.438.8645,6.6859,1.1335a60.61,60.61,0,0,0,12.4271.2274Z" fill="#fbf4ea"/>
    <path d="M32.0955,23.2684a28.26,28.26,0,0,1,1.4217,11.918c-.5316,6.6827-3.0452,13.3942-7.9187,18.0051a20.8716,20.8716,0,0,1-4.3612,3.2693c-2.3342-.9254-4.64-1.9308-6.9132-2.9907A37.9632,37.9632,0,0,1,5.6722,48.254,16.9816,16.9816,0,0,1,.12,38.4749c-1.5915-3.772,12.9778-19.779,25.0816-24.14a17.4017,17.4017,0,0,1,6.894,8.934M19.1688,30.377a2.3707,2.3707,0,1,0-2.1165,2.1165,2.3722,2.3722,0,0,0,2.1165-2.1165" fill="#bc241d"/>
    <path d="M16.5687,27.7738a2.3723,2.3723,0,1,1-2.1165,2.12,2.372,2.372,0,0,1,2.1165-2.12" fill="#353431"/>
  </g>
</svg>
