<svg xmlns="http://www.w3.org/2000/svg" viewBox="0 0 243.7526 166.443">
  <title>shark</title>
  <g>
    <path d="M126.1513,149.8941c-2.4172.4285-4.85.8075-7.3133,1.1338-.5427.0791-1.0907.1487-1.6362.2121q-4.05.5175-8.1872.8624c-.5268.046-1.0534.0921-1.5773.1309q-4.9065.3783-9.927.54c-1.7017.0676-3.4177.1019-5.1353.12q-5.2974.0846-10.7055-.0618c-3.7108-.081-7.4521-.2448-11.2293-.47a2.4787,2.4787,0,0,0-1.6466.4474c-4.851,3.69,20.0268,14.5808,50.8292,13.567,1.8943-.0607,61.5-1.7723,69.6534-2.0042.601-.0182,1.043-.556,1.6412-.62,10.6821-1.1661,16.393-9.8945,19.4922-22.6275.0686-.2872.2757-.5306.3461-.8245l.9059-3.759c-11.0389-2.9148-13.5706.85-26.93-1.9689-13.4011-2.83-16.5534-13.3567-16.5534-13.3567l-164.3859-6.6-.1542.2414c.1188.0841.24.161.3629.2309.6837.3984,1.7709,1.0989,2.4293,1.5348,6.0113,3.943,42.3152,9.1207,65.0623,12.328.3154.047,5.5245.52,13.0871,1.1592,1.0361.0826,2.1137.1764,3.2373.2674,3.4406.2844,7.2388.5976,11.2008.9091.846.0693,1.6938.132,2.555.1974,3.2409.2541,6.57.5088,9.8876.7532q.7032.0517,1.4039.1027c2.9807.2167,5.9339.42,8.7878.6093q.91.0613,1.8056.119c2.5483.1655,4.9977.3124,7.3023.4431.2859.0167.572.0335.8534.041,1.9883.1137,3.8647.2038,5.5723.28,2.8764.1117,5.3021.1778,7.1027.1588a2.69,2.69,0,0,1,2.5954,3.4564c-1.578,5.179-4.851,9.0822-11.3912,10.5413-.1855.0428-.3735.0815-.5648.1193q-2.6428.62-5.3334,1.1458-1.7133.3372-3.4432.6407" fill="#cbdee3"/>
    <path d="M3.6382,114.8567l.1541-.2415,164.386,6.6s3.1523,10.527,16.5534,13.3567c13.3593,2.8193,15.891-.9458,26.93,1.9688L243.6776,3.32A2.6966,2.6966,0,0,0,241.0609,0C137.9107.02,59.0794,28.8038,7.0214,89.2724A28.507,28.507,0,0,0,.165,104.3863C-.3684,108.9.29,112.69,3.6382,114.8567M108.27,88.8424a7.9187,7.9187,0,1,1,9.6916-5.61,7.9142,7.9142,0,0,1-9.6916,5.61" fill="#859398"/>
    <g>
      <path d="M82.2041,151.3506l-.5347,1.4815q5.4042.1449,10.7055.0617l-1.1388-1.6525-8.8523.1421L82.29,151.35Z" fill="#cccbcb"/>
      <polygon points="82.204 151.351 82.29 151.35 82.214 151.323 82.204 151.351" fill="#3c5d77"/>
      <path d="M82.29,151.35l.0942.0331,8.8524-.1421-5.1771-7.49a.6845.6845,0,0,0-1.1762.1927l-2.6686,7.3792Z" fill="#f1f1f1"/>
      <path d="M97.9055,151.5155l-.3952,1.2583q5.0161-.16,9.927-.54l-.9951-1.1592-8.3852.49Z" fill="#cccbcb"/>
      <path d="M97.9055,151.5155l.1515.0483,8.3852-.49-5.4491-6.3269a.5964.5964,0,0,0-1.018.2126Z" fill="#f1f1f1"/>
      <path d="M109.317,150.7792l-.3024,1.3232q4.1377-.3487,8.1872-.8624l-1.2112-1.3813-6.5295.903-.0066-.0016Z" fill="#cccbcb"/>
      <path d="M109.3274,150.7332l.1271.0268,6.536-.9013-4.4792-5.1068a.5077.5077,0,0,0-.8553.2488Z" fill="#f1f1f1"/>
      <path d="M78.0058,140.2017a.6972.6972,0,0,0,1.219-.0169l4.2744-7.98-.182-.1-10.8045-1.3924Z" fill="#f1f1f1"/>
      <path d="M119.3228,150.0466l-.4848.9813c2.4637-.3263,4.8961-.7053,7.3133-1.1338l-.6053-1.1681Z" fill="#cccbcb"/>
      <path d="M119.3228,150.0466l6.2232-1.3206-2.537-4.9c-.1753-.292-.6052-.2726-.9475.7308Z" fill="#f1f1f1"/>
      <path d="M93.3646,139.7988a.6768.6768,0,0,0,1.1842-.0261l3.6555-6.9455-.1556-.0859L88.5311,131.58Z" fill="#f1f1f1"/>
      <path d="M129.59,149.23l.0044.0233q2.6892-.5286,5.3334-1.1457c.1914-.0378.3794-.0764.565-.1193l-.89-.839-4.724.9227-.0924-.0166Z" fill="#cccbcb"/>
      <path d="M129.7861,148.0553l.0924.0167,4.724-.9228-3.5793-3.1751a.3456.3456,0,0,0-.5666.1989Z" fill="#f1f1f1"/>
      <path d="M106.4592,139.7836a.5968.5968,0,0,0,1.0416-.0207l3.2021-6.082-.1441-.0757-8.3345-1.0169Z" fill="#f1f1f1"/>
      <path d="M72.5127,130.7125l10.8045,1.3924.182.1,1.0706-2.0014.01-.0942c-7.5626-.6395-12.7717-1.1122-13.0871-1.159Z" fill="#cccbcb"/>
      <path d="M117.2949,139.8871a.5112.5112,0,0,0,.8926-.0221l2.6166-5.2689-7.127-.8672Z" fill="#f1f1f1"/>
      <path d="M87.8171,130.377l.714,1.2034,9.5175,1.1609.1557.086.0075.0021.8061-1.5433c-3.962-.3116-7.76-.6247-11.2008-.9091" fill="#cccbcb"/>
      <path d="M101.5729,131.4834l.6514,1.1049,8.3345,1.0169.1441.0758.7576-1.4443c-3.3173-.2443-6.6468-.499-9.8876-.7533" fill="#cccbcb"/>
      <path d="M127.0463,139.1657a.4368.4368,0,0,0,.7629-.0124l2.3558-4.4748-.1036-.0579-6.1273-.7408Z" fill="#f1f1f1"/>
      <path d="M112.8644,132.3394l.8127,1.3895,7.127.8671.3136-.6324.5345-1.015c-2.8539-.1892-5.8072-.3924-8.7878-.6092" fill="#cccbcb"/>
      <path d="M134.32,138.1554a.3434.3434,0,0,0,.5984-.0118l1.8307-3.4822-.0774-.0429-4.7776-.5814Z" fill="#f1f1f1"/>
      <path d="M123.9267,133.8779l.0074.002,6.1274.7407.1035.0579.5943-1.1387.0008-.029c-2.3046-.1306-4.7539-.2776-7.3023-.4431Z" fill="#cccbcb"/>
      <path d="M131.8937,134.0371l4.7776.5814.0774.0429.4371-.83c-1.7076-.0761-3.584-.1663-5.5723-.28Z" fill="#cccbcb"/>
    </g>
    <path d="M102.6591,79.1505a7.9187,7.9187,0,1,0,9.6927-5.61,7.9145,7.9145,0,0,0-9.6927,5.61" fill="#383838"/>
  </g>
</svg>
