<svg xmlns="http://www.w3.org/2000/svg" width="100%" height="358.4824" viewBox="0 0 569.747 358.4824" preserveAspectRatio="none">
  <title>textWrapper</title>
  <g id="Layer_2" data-name="Layer 2">
    <g id="textWrapper">
      <g>
        <path id="back" d="M154.1294,2.3076c15.7683-.3672,36.3549,2.083,56.9758,3.769a350.0977,350.0977,0,0,0,52.41.4508c5.5923-.3819,11.1949-.4959,16.7872-.72C299.8941,5.0228,319.51,3.937,339.09,5.7409A325.3907,325.3907,0,0,0,380.4841,7c15.1465-.5366,30.2565-2.1378,45.3709-3.5554,4.6211-.4335,9.251-.761,13.88-.9424,9.9419-.3889,19.8849-.7322,29.8295-.9483,15.8373-.3433,31.68-.3841,47.513-.9326C523.2535.4076,529.4286-.0122,535.6086,0c19.1565.038,29.77,13.3654,31.7408,39.2836a727.6507,727.6507,0,0,1,2.1911,74.4665c-.7066,26.6792-1.7734,53.3411-2.662,80.0116-.4329,13.008-.8739,26.016-1.21,39.0294-.6762,26.1627-1.2335,52.3308-1.9526,78.4913-.1663,6.03-.5823,12.0738-2.3,17.7889-3.8211,12.7071-11.3585,19.1114-20.5633,22.8027-7.8692,3.1557-15.9481,3.9884-24.0732,3.8146-24.0492-.5133-48.1028-1.2009-72.1477-.4889-28.495.8436-56.9884.5182-85.4823.6344-17.77.0728-35.5282-1.221-53.2905-1.366-16.1138-.1314-32.2319.6529-48.34,1.7669q-23.86,1.6515-47.7639,2.0965c-22.8907.402-45.7755-.0879-68.6559-.4551-21.5306-.3465-43.0645-.9592-64.59-1.6773-14.5962-.4872-29.1538.7371-43.7337.5008-4.5723-.0738-9.0669-.4948-13.4409-2.3529-9.3026-3.952-14.57-13.05-16.7232-25.518-3.0389-17.59-2.952-35.506-2.0917-53.404.9348-19.4357,4.33-38.4744,5.3-57.9041.9375-18.7817,1.2129-37.59.3629-56.4012-.327-7.2223-.3145-14.4582-.603-21.6892-.4964-12.4768-.5724-24.9862-.7582-37.4837q-.32-21.51-.51-43.0238a100.478,100.478,0,0,1,1.83-19.9126C9.6464,20.8791,18.8714,9.8178,32.56,7.0689,38.0235,5.9717,43.5317,5.931,49.02,5.72c13.611-.5242,27.2322-.5654,40.8415-1.1395,19.7817-.8349,39.5514-2.2324,64.2677-2.2726" fill="#d9d3c9"/>
        <path id="front" d="M152.3662,2.2551c15.5875-.3584,35.9389,2.0358,56.3241,3.6837a350.1489,350.1489,0,0,0,51.81.4405c5.5287-.3731,11.0673-.485,16.5955-.7034,19.3678-.7669,38.76-1.8282,58.1159-.0651a325.3091,325.3091,0,0,0,40.92,1.23c14.9726-.5236,29.91-2.089,44.8521-3.474,4.5679-.4237,9.1445-.7436,13.7206-.9206,9.8284-.3808,19.6584-.7165,29.489-.9267,15.6558-.3362,31.3172-.3758,46.9687-.9119,6.1045-.21,12.21-.6192,18.319-.6073,18.9382.037,29.4292,13.0613,31.3775,38.3907a702.8414,702.8414,0,0,1,2.1661,72.7741c-.6985,26.073-1.7533,52.1281-2.631,78.1936-.4281,12.712-.8648,25.4245-1.1966,38.1414-.6681,25.5679-1.2194,51.1418-1.93,76.7081-.164,5.8927-.5757,11.7989-2.2742,17.3842-3.7771,12.4187-11.2275,18.6774-20.3275,22.2845-7.78,3.0841-15.7662,3.8977-23.7984,3.7277-23.7733-.5013-47.552-1.1732-71.3221-.478-28.1691.8251-56.336.5068-84.504.62-17.5673.0712-35.122-1.1928-52.6817-1.3345-15.9291-.1282-31.8625.6382-47.7867,1.7272q-23.5866,1.6124-47.2175,2.0477c-22.6289.3933-45.2514-.0847-67.8705-.4443-21.284-.3384-42.5719-.9375-63.8511-1.6392-14.4294-.4759-28.82.72-43.2334.49a34.9377,34.9377,0,0,1-13.2872-2.3C9.9163,342.4318,4.71,333.5414,2.5805,321.3563-.4232,304.166-.3379,286.6569.5132,269.1651c.9239-18.9941,4.28-37.5993,5.2388-56.5875.9271-18.3548,1.1992-36.7357.3584-55.1193-.3226-7.0583-.3106-14.13-.5953-21.1961-.491-12.1932-.5659-24.4186-.75-36.6319q-.3155-21.021-.503-42.0462A97.0886,97.0886,0,0,1,6.07,38.124C9.5361,20.4047,18.6557,9.5954,32.1878,6.9078,37.5884,5.8362,43.0335,5.7965,48.46,5.59c13.455-.5122,26.92-.5529,40.3743-1.114,19.5552-.8158,39.0984-2.1813,63.5322-2.221" fill="#e8e3da"/>
      </g>
    </g>
  </g>
</svg>
