<svg xmlns="http://www.w3.org/2000/svg" width="563.2289" height="350.3347" viewBox="0 0 563.2289 350.3347" preserveAspectRatio="none">
  <title>TextWrapper</title>
  <g id="Layer_2" data-name="Layer 2">
    <g id="textWrapper">
      <path id="front" d="M152.3661,2.2549c15.5874-.3585,35.9389,2.0357,56.324,3.6837a350.1625,350.1625,0,0,0,51.81.44c5.5288-.3731,11.0673-.485,16.5956-.7033,19.3678-.767,38.7594-1.8283,58.1159-.0652a325.3075,325.3075,0,0,0,40.92,1.23c14.9726-.5236,29.9105-2.0889,44.8521-3.474,4.568-.4236,9.1446-.7436,13.7207-.9206,9.8283-.3808,19.6584-.7165,29.4889-.9266,15.6559-.3363,31.3172-.3759,46.9688-.912,6.1045-.21,12.21-.6192,18.3189-.6072C548.4192.0372,558.91,13.0615,560.8585,38.391a702.7837,702.7837,0,0,1,2.1661,72.774c-.6985,26.073-1.7533,52.1281-2.631,78.1936-.4281,12.712-.8647,25.4245-1.1966,38.1414-.6681,25.5679-1.2193,51.1418-1.93,76.7081-.164,5.8927-.5757,11.7989-2.2741,17.3842-3.7771,12.4187-11.2276,18.6775-20.3276,22.2845-7.78,3.0841-15.7661,3.8977-23.7983,3.7277-23.7733-.5013-47.5521-1.1732-71.3222-.4779-28.1691.825-56.336.5067-84.504.62-17.5672.0712-35.122-1.1927-52.6816-1.3345-15.9292-.1282-31.8626.6382-47.7868,1.7272q-23.5865,1.6123-47.2175,2.0477c-22.6289.3933-45.2513-.0847-67.87-.4443-21.2841-.3384-42.572-.9375-63.8511-1.6392-14.4295-.4758-28.82.72-43.2335.49a34.9379,34.9379,0,0,1-13.2872-2.3C9.9162,342.4315,4.71,333.5412,2.58,321.356c-3.0036-17.19-2.9184-34.6994-2.0672-52.1912.9239-18.9941,4.28-37.5993,5.2387-56.5874.9272-18.3549,1.1993-36.7358.3585-55.1194-.3227-7.0583-.3107-14.13-.5953-21.196-.491-12.1933-.566-24.4186-.75-36.632Q4.45,78.6092,4.2619,57.5839A97.089,97.089,0,0,1,6.07,38.1237C9.536,20.4044,18.6555,9.5951,32.1877,6.9075,37.5883,5.8359,43.0334,5.7962,48.46,5.59c13.455-.5122,26.92-.5529,40.3743-1.114,19.5552-.8158,39.0985-2.1813,63.5323-2.2209" fill="#fbf4ea" opacity="0.94"/>
    </g>
  </g>
</svg>
